<svg xmlns="http://www.w3.org/2000/svg" xmlns:xlink="http://www.w3.org/1999/xlink" width="91" height="91"><defs><linearGradient id="a" x1="34.24" y1="74.23" x2="34.24" y2="16.77" gradientUnits="userSpaceOnUse"><stop offset="0" stop-color="#035"/><stop offset=".7" stop-color="#007ac1"/></linearGradient><linearGradient id="b" x1="23.5" y1="62.47" x2="70.16" y2="35.53" gradientUnits="userSpaceOnUse"><stop offset=".49" stop-color="#ed8e13"/><stop offset=".73" stop-color="#80490a"/><stop offset=".86" stop-color="#ed8e13"/></linearGradient><linearGradient id="c" x1="38.27" y1="56.3" x2="38.27" y2="55.72" gradientUnits="userSpaceOnUse"><stop offset="0" stop-color="#999"/><stop offset="1" stop-color="#333"/></linearGradient><linearGradient id="d" x1="62.23" y1="16.77" x2="62.23" y2="74.23" xlink:href="#a"/></defs><path fill="url(#a)" d="M30.36 74.23H13l25.13-57.46h17.35L30.36 74.23z"/><path fill="url(#b)" d="M71.87 55.72l4.24-9.89H15.64l3.96 9.89h52.27z"/><path d="M21 55.72l6.07 18.49h41.32V55.72zM30 71l-4-11.84h7.8L36.61 71zm14.7 0h-5.78l-2.31-11.81h8.09zm8.09 0H47.3V59.19h7.8zm2.89 0l2-8.38 4 8.38z" fill="#d9ccbb"/><path fill="#cfc2b2" d="M67.53 74.21H27.08l-.29-.88h40.74v.88z"/><path fill="url(#c)" d="M55.53 56.3H21.2l-.19-.58h34.52v.58z"/><path fill="url(#d)" d="M55.48 16.77l-9.03 20.64 14.66 36.82H78L55.48 16.77z"/></svg>