<svg xmlns="http://www.w3.org/2000/svg" width="91" height="91"><path d="M27.53 41.08H25.3l-4.43 8.33h2.24l1.41-2.88h3l1 2.88h2.05zm-2.6 4.1l1.39-2.76 1 2.71zm13.59 4a6.85 6.85 0 0 1-3.26.47c-3 0-5-1.23-5-4.19 0-2.61 2.23-4.56 5.4-4.56a4.84 4.84 0 0 1 2.8.46v1.39a5.74 5.74 0 0 0-2.71-.46A3.14 3.14 0 0 0 32.22 45a2.26 2.26 0 0 0 0 .45c0 2 1 2.88 2.79 2.88a2.75 2.75 0 0 0 1.75-.33v-2h-1.5v-1.39h3.36l-.09 4.57m5.12-8.28a4.55 4.55 0 0 0-4.73 4.37c0 2.79 1.85 4.38 4.73 4.38 3.08 0 4.75-1.87 4.75-4.38-.01-2.7-1.77-4.37-4.75-4.37zm0 7.44a3.08 3.08 0 1 1 2.94-3.21v.14a3 3 0 0 1-2.94 3.07zM61 41.08h-2.17l-4 7.5-1.68-3a2.28 2.28 0 1 0-.23-4.51H49l-.28 8.48h1.87l.18-7.15h1.66a1.24 1.24 0 0 1 1.31 1c0 .94-.74 1.51-2.6 1.51l2.14 4.65h3.35l1.4-3h3.07l1.06 3h2.14zm-2.46 4.1l1.34-2.76 1 2.71z" fill="#267b28"/><path d="M70.09 49.28v-1c-2.14.55-4.1.09-4.1-2 0-1.87 2.46-2.89 4.1-2.06v-1.1c-2.69-.83-5.51.53-5.51 3.18 0 3.53 3.63 3.69 5.49 3m3.66-2.16c-1.08 0-2 .49-2 1.12 0 .3.27.65 1.39.55l-.09.75c-1.87 0-2.71-.2-2.71-1.4 0-.74.93-1.23 1.68-1.49 1-.33 1.87-.28 1.87-.84s-1.12-.65-2.88-.1v-.85c2.32-.73 4.1-.18 4.1.66l-.1 4h-1.4zM79 44.61c-.88 0-1.4.19-1.59.57v-.47h-1.3L76 49.55h1.31l.09-2.46c0-1 .74-1.41 1.68-1.41zm3.3 4.75c-.75.29-2.46.57-2.46-1v-2.71h-.49v-.94H80v-.93l1.3-.37v1.3h1.12v.94h-1.13v2.46c0 .56.38.65 1.12.47z" fill="#fc0"/><path d="M10.69 49.63a.47.47 0 0 1-.44.52c-.7 0-1.23-.92-1.23-1.3a.52.52 0 0 1 .48-.52c.64.01 1.19 1 1.19 1.3zm5.04-.63a.68.68 0 0 0-.67.67c0 .57.94 2 2 2 .36 0 .59-.34.59-.76S16.8 49 15.73 49z" fill="#fecb00"/><path d="M85.5 50.58l-66.17-.08c-.33 0-.4-.24-.75-.51a1 1 0 0 1-.12-.16.82.82 0 0 1 .09-.8 95.8 95.8 0 0 0 4.72-8.76 1.34 1.34 0 0 0 .15-.48.46.46 0 0 0-.43-.48.58.58 0 0 0-.57.38l-.27.5c-7.32.63-10.67.93-16.5 1.57-.26 0-.13.5.18.47l2.07 4.24a65.14 65.14 0 0 1 10.24.89l-.86 1.54c-1.23-.66-3.7-1.23-8.62-1-.13 0-.26.09-.26.19s.13.18.26.18c5.52 0 9.2.47 9.32 2.53v.35c0 .2.29.35.66.35zM6.21 42.19c5.47-.54 9.72-.89 14.88-1.23.28 0 .52 0 .56.11a5.8 5.8 0 0 1-.74 1.32c-6.22.35-8.71.57-14.19.87zm.66 1.39c4.54-.19 8.74-.44 13.77-.73-.3.56-.62 1.12-.94 1.69-4.25 0-7.22 0-12.3.09zM8 46l-.54-1.23c2.46.1 6.26.18 11.94.21l-1 1.81A63.3 63.3 0 0 0 8 46z" fill="#fecb00"/></svg>