<svg xmlns="http://www.w3.org/2000/svg" width="91" height="91"><path d="M24.37 70.72v.33c-.31 2.59-4.37 2.37-4.37 5.83h4.52v.3a.21.21 0 0 1-.2.23h-4.87v-.71c0-3.63 4.36-3.48 4.36-6" fill="#f9a230"/><path d="M19.68 69.53a2.34 2.34 0 0 1 2.21-1.39 2.49 2.49 0 0 1 2.47 2.58v.33h-.56v-.36a1.88 1.88 0 0 0-1.91-2 1.76 1.76 0 0 0-1.74 1.15z" fill="#f9a230"/><path d="M13 65.51h.55v3.41a3.42 3.42 0 0 1 2.06-.81 2.16 2.16 0 0 1 2.26 2.54v1.73a2.17 2.17 0 0 1-2.26 2.55 3.42 3.42 0 0 1-2.11-.86l-.1.69H13zm.55 8a3.71 3.71 0 0 0 2 .83c1.27 0 1.81-.74 1.81-2.22v-1.28c0-1.48-.55-2.2-1.82-2.2a3.49 3.49 0 0 0-2 .86zm12.84-2.85a2.43 2.43 0 0 1 2.46-2.55 2.47 2.47 0 0 1 2.47 2.55v.63a.22.22 0 0 1-.21.23H27v.87a1.88 1.88 0 0 0 1.94 2 6.84 6.84 0 0 0 2-.35l.13.52a7.07 7.07 0 0 1-2.14.37 2.45 2.45 0 0 1-2.5-2.54zm4.38.35v-.35a1.91 1.91 0 1 0-3.82 0V71zM33 68.27h.56l1.62 4.56c.14.41.33 1.06.46 1.49.12-.43.32-1.07.47-1.49l1.62-4.56h.55L36 74.76h-.73zm6.55 2.61a2.58 2.58 0 1 1 5.15 0v1.26a2.58 2.58 0 1 1-5.15 0zm.57 1.12c0 1.4.58 2.36 2 2.36s2-1 2-2.36v-1c0-1.39-.58-2.33-2-2.33s-2 1-2 2.33zm6.95-3.36V73a1.71 1.71 0 0 0 1.77 1.86v-.53c-.65 0-1.21-.33-1.21-1.42v-7.4h-.56zm3.87-.14a.21.21 0 0 1 .2-.23h.36v4.27c0 1.16.37 1.85 1.63 1.85a3.52 3.52 0 0 0 2-.89v-5.23h.56v6.49h-.4l-.1-.72a3.54 3.54 0 0 1-2.11.89 2 2 0 0 1-2.17-2.18zm7.56.25h-1.07v-.43h1.07v-2.24h.56v2.18h1.65v.49h-1.64V73c0 1.08.56 1.41 1.21 1.41a3.75 3.75 0 0 0 .82-.09l.07.52a3.33 3.33 0 0 1-.89.1 1.7 1.7 0 0 1-1.77-1.86zm4.67-2.31a.39.39 0 0 1 .39-.4.41.41 0 0 1 .44.38.45.45 0 0 1-.44.45.44.44 0 0 1-.42-.44zm.14 1.83h.56v6.25a.21.21 0 0 1-.2.23h-.36zm2.92 2.55a2.58 2.58 0 1 1 5.15 0v1.25a2.58 2.58 0 1 1-5.15 0zM66.8 72c0 1.4.58 2.35 2 2.35s2-.95 2-2.35v-1.09c0-1.39-.59-2.33-2-2.33s-2 .94-2 2.33zm6.42-3.57h.41l.1.72a3.48 3.48 0 0 1 2.1-.89A2 2 0 0 1 78 70.43v4.26a.21.21 0 0 1-.2.23h-.36v-4.27c0-1.16-.37-1.85-1.63-1.85a3.58 3.58 0 0 0-2 .89v5.23h-.56z" fill="#565656"/><path d="M54.06 23.24V16a2.41 2.41 0 0 1 2.42-2.41h13.27A2.41 2.41 0 0 1 72.16 16v13.27a2.41 2.41 0 0 1-2.41 2.42H68.2l.54 3.42-3.82-3.42v-2.18a6.28 6.28 0 0 0-6.28-6.27z" fill="#faa72d"/><path d="M56.47 64.25L48 57H35.72a4.58 4.58 0 0 1-4.58-4.58V30.24a4.58 4.58 0 0 1 4.58-4.58h22.2a4.58 4.58 0 0 1 4.59 4.58v22.19A4.59 4.59 0 0 1 57.92 57h-2.65z" fill="#faa72d"/><path d="M28.73 46.16h-6.16a3.5 3.5 0 0 1-3.49-3.5V20.71a3.5 3.5 0 0 1 3.49-3.5h20.75a3.5 3.5 0 0 1 3.5 3.5v2.53H35a6.27 6.27 0 0 0-6.27 6.27zm25.33-22.92V16a2.41 2.41 0 0 1 2.42-2.41h13.27A2.41 2.41 0 0 1 72.16 16v13.27a2.41 2.41 0 0 1-2.41 2.42H68.2l.54 3.42-3.82-3.42v-2.18a6.28 6.28 0 0 0-6.28-6.27z" fill="#faa72d"/><path d="M56.47 64.25L48 57H35.72a4.58 4.58 0 0 1-4.58-4.58V30.24a4.58 4.58 0 0 1 4.58-4.58h22.2a4.58 4.58 0 0 1 4.59 4.58v22.19A4.59 4.59 0 0 1 57.92 57h-2.65z" fill="#faa72d"/><path d="M28.73 46.16h-6.16a3.5 3.5 0 0 1-3.49-3.5V20.71a3.5 3.5 0 0 1 3.49-3.5h20.75a3.5 3.5 0 0 1 3.5 3.5v2.53H35a6.27 6.27 0 0 0-6.27 6.27z" fill="#faa72d"/></svg>