<svg xmlns="http://www.w3.org/2000/svg" width="65" height="65"><path d="M35.33 26l.2.41c.82-1 1.62-3.1 3.88-3.19s5.12 1.55 7.36 1.55c5.11 0 3.68-5.12 10.43-5.12.4 0 .4-.4 0-.4-7.16 0-5.9 5.11-10.43 5.11-1.22 0-5.72-1.63-6.94-1.63-2.83.03-3.7 2.08-4.5 3.27z" fill="#5e88b6"/><path d="M48.2 15.2a9.53 9.53 0 0 1-4.49 8.8c-.82-4.24 2.29-7.34 4.49-8.8zm6.28-1.63a7.1 7.1 0 0 1-1.78 7.1 6.48 6.48 0 0 1 1.78-7.1z" fill="#5e88b6"/><path d="M60 23.22a7.36 7.36 0 0 1-7.16-2.8 6.77 6.77 0 0 1 7.16 2.8zm-54.32-.37h2.5a4.44 4.44 0 0 1 2.92.73 2.27 2.27 0 0 1 .9 1.88 2.48 2.48 0 0 1-1.79 2.32 2.71 2.71 0 0 1 2.19 2.66 2.77 2.77 0 0 1-.91 2.12 5.25 5.25 0 0 1-3.66 1.11H5.69zm1.37 4.64H8.3c1.44 0 2.29-.76 2.29-1.78S9.66 24 8.27 24H7.05zm0 5.14h1.16c1.42 0 2.72-.51 2.72-2.05s-1.24-2.06-2.73-2.06H7.05zm11.78.87v-1.13a3.33 3.33 0 0 1-3 1.3 2.38 2.38 0 0 1-2.33-2.18c0-1.84 2-2.86 5-2.83v-.17a1.83 1.83 0 0 0-1.61-2h-.19a5.47 5.47 0 0 0-2.44.61V26a4.65 4.65 0 0 1 2.44-.62 3.09 3.09 0 0 1 3.12 3.07v5.05zm-.22-3.88c-1.54 0-3.81.23-3.81 1.7a1.39 1.39 0 0 0 1.44 1.34h.1a2.56 2.56 0 0 0 2.26-1.27 1.7 1.7 0 0 0 0-.45zM21.92 28v-2h.93v1.22a2.82 2.82 0 0 1 2.52-1.54 2.16 2.16 0 0 1 2.18 1.73 2.8 2.8 0 0 1 2.54-1.73c1 0 2.5.86 2.5 3.51v4.48h-1.14V29.2c0-1.54-.34-2.76-1.46-2.76a2.37 2.37 0 0 0-2.16 2.34v4.64h-1.27v-4.64c0-1.22 0-2.5-1.54-2.5a2.45 2.45 0 0 0-2 2.47v4.64h-1.1zm12.76 5.5V22.12h1.16v5a2.87 2.87 0 0 1 2.53-1.71c1.89 0 3.09 1.88 3.09 4.18 0 2.74-1.54 4.08-3.23 4.08a2.52 2.52 0 0 1-2.39-1.42v1.25zm1.37-3.09a4 4 0 0 0 0 .49 2.16 2.16 0 0 0 2.07 1.55c1.47 0 2.12-1.18 2.12-2.92s-.58-3.25-2.07-3.25c-.94 0-1.82 1-2.1 2.1A3.72 3.72 0 0 0 36 29zm14.21-.79a3.73 3.73 0 0 1-3.39 4h-.4a3.63 3.63 0 0 1-3.66-3.57v-.34a3.91 3.91 0 0 1 3.53-4.24h.31a3.76 3.76 0 0 1 3.61 3.92 1.21 1.21 0 0 1 0 .23zm-6.18.09a2.71 2.71 0 0 0 2.5 2.92 2.75 2.75 0 0 0 2.52-3c0-1.29-.85-3.1-2.49-3.1S44 28.27 44 29.71zM59 29.62a3.71 3.71 0 0 1-3.36 4 2.68 2.68 0 0 1-.4 0 3.63 3.63 0 0 1-3.68-3.56v-.35a3.9 3.9 0 0 1 3.52-4.24h.25A3.77 3.77 0 0 1 59 29.39v.23zm-6.19.09a2.55 2.55 0 0 0 5 .89 2.66 2.66 0 0 0 0-.89c0-1.28-.85-3.09-2.49-3.09s-2.48 1.65-2.48 3.09z" fill="#5e88b6"/><path d="M10.9 45.53H8v-9.14h2.9zm9.31 0h-3.52l-1.88-5.88v5.88H12.5v-9.14H16l1.87 5.88v-5.88h2.32zm9.09-9.14l-2.57 9.14h-3l-2.55-9.14h3l1.2 5.88 1.18-5.83zM38.15 41a4.28 4.28 0 0 1-3.78 4.73h-.35a4.42 4.42 0 0 1-4-4.65c0-3.53 2.09-4.9 3.94-4.9s4.19 1.14 4.19 4.82zm-2.79 0c0-1.13-.24-3-1.34-3s-1.23 2.33-1.23 3S33 43.83 34 43.83s1.34-1.56 1.34-2.77zm6.98 4.48h-2.78v-9.16h2.78zM50.5 45a3 3 0 0 1-2.1.69 4.3 4.3 0 0 1-4.65-3.91 4.57 4.57 0 0 1 0-.74A4.6 4.6 0 0 1 48 36.17h.14a5 5 0 0 1 2.33.48V39a2.83 2.83 0 0 0-1.62-.7 2.5 2.5 0 0 0-2.59 2.41 2.54 2.54 0 0 0 0 .39 2.45 2.45 0 0 0 2.34 2.55h.24a2.36 2.36 0 0 0 1.62-.68zm7.5.53h-6.2v-9.14H58v2.08h-3.17v1.43h2.94V42h-3v1.49H58z"/></svg>