<svg xmlns="http://www.w3.org/2000/svg" width="91" height="91"><path d="M11.84 67a6.26 6.26 0 0 1-6.36-6.2v-.23a6.3 6.3 0 0 1 6.2-6.4H12a6.38 6.38 0 0 1 4.92 1.92l-1.72 2a4.62 4.62 0 0 0-3.2-1.4 3.7 3.7 0 0 0-3.6 3.79v.07a3.69 3.69 0 0 0 3.49 3.89H12A4.49 4.49 0 0 0 15.23 63L17 64.74A6.31 6.31 0 0 1 11.84 67zm12.52-.26v-1a3.69 3.69 0 0 1-2.86 1.23 2.93 2.93 0 0 1-3.24-2.58v-.33c0-2.07 1.58-3 3.83-3a6.49 6.49 0 0 1 2.31.4v-.17c0-1.11-.69-1.74-2-1.74a6.73 6.73 0 0 0-2.62.52L19 57.9a8.08 8.08 0 0 1 3.69-.7c2.93 0 4.24 1.53 4.24 4.09v5.5zm.06-3.83a4.31 4.31 0 0 0-1.7-.35c-1.16 0-1.87.46-1.87 1.31 0 .72.6 1.15 1.48 1.15 1.23 0 2.09-.69 2.09-1.68v-.43zm10.97 3.83l-2.46-3.88-.93 1v2.89h-2.71V53.81H32v6.89l3.15-3.5h3.23l-3.61 3.69 3.7 5.75zm12.74-3.8h-6.6a2.19 2.19 0 0 0 2.31 1.84 3.17 3.17 0 0 0 2.28-1l1.54 1.37a5 5 0 0 1-8.83-3.13 4.71 4.71 0 0 1 4.5-4.92h.18c3.18 0 4.62 2.47 4.62 5.15.01.24.01.47 0 .69zm-4.58-3.7a2.12 2.12 0 0 0-2 2h4a2 2 0 0 0-2-2z" fill="#404041"/><path d="M55.25 63h-2.07v3.7h-2.74V54.34h5.06c3 0 4.75 1.76 4.75 4.29.01 2.9-2.25 4.37-5 4.37zm2.25-4.33c0-1.23-.85-1.89-2.22-1.89h-2.09v3.8h2.17a1.92 1.92 0 0 0 2.14-1.68 1.48 1.48 0 0 0 0-.21zM70 66.74v-4.92h-5v4.92h-2.73v-12.4H65v4.93h5v-4.93h2.73v12.4zM80.53 63h-2.07v3.7h-2.78V54.34h5.06c3 0 4.74 1.76 4.74 4.29.05 2.9-2.18 4.37-4.95 4.37zm2.24-4.33c0-1.23-.85-1.89-2.22-1.89h-2.09v3.8h2.14a1.92 1.92 0 0 0 2.15-1.66 1.79 1.79 0 0 0 0-.23zM45.5 33.38l11.7 2.88c2-.8 3.26-1.81 3.26-2.89v-4.66c0-2.57-6.69-4.66-14.93-4.66s-14.94 2.1-14.94 4.66v4.67c0 2.56 6.69 4.66 14.94 4.66v-4.66z" fill="#d33c43"/><path d="M57.2 40.94L45.5 38v4.7l11.7 2.91c2-.8 3.26-1.81 3.26-2.91V38c-.02 1.13-1.25 2.14-3.26 2.94zM30.57 38v4.7c0 2.58 6.68 4.65 14.93 4.65v-4.66c-8.25 0-14.93-2.08-14.93-4.69z" fill="#d33c43"/></svg>