<svg xmlns="http://www.w3.org/2000/svg" width="91" height="91"><path fill="#d95947" d="M-1-1h93v93H-1z"/><path d="M46.8 38.54l-2.62 2.07-.2 1h-2.74l.8-4.18c.18-1.57 2.59-1.09 2.94-1l.38-2c-4.31-1.66-5.57 3-5.57 3L39 41.65l-2.7 2.12h2.31L36.05 57.1h2.24l2.54-13.34h2.73l-1 5.22c-.63 3.81 3.17 3.39 4.39 3.15l.38-2c-2.91.66-2.52-1.14-2.52-1.14l1-5.23h3.47l.4-2.11h-3.47l.59-3.1zM29 41.7l-.4 2.24c5.49-2.39 4.56 1.78 4.56 1.78l-.11.63s-3.22-1.65-5.47.19a3.3 3.3 0 0 0-1.32 2.64 3.37 3.37 0 0 0 1.61 2.7 3.69 3.69 0 0 0 4.33-.76l-.21 1h2.12l1.34-6.34c1-6.25-6.45-4-6.45-4zm3.53 7.54c-2.34 2.4-3.83.83-3.83.83a1.34 1.34 0 0 1 0-1.89l.12-.11c1.55-1.42 3.92.14 3.92.14zm-5.45-7.59a7.43 7.43 0 0 0-3.31 1l.2-1h-2.08L20 52.09h2.13l1.28-6.85c.95-1.93 3.3-1.33 3.3-1.33zM19 37.2l.31.25 1.61-1.27v-.06a7.56 7.56 0 0 0-.8-.7c-3.7-2.8-9.29-1.63-12.49 2.61S4.87 48 8.57 50.76c3 2.28 7.3 1.92 10.51-.6L17.55 49a6.51 6.51 0 0 1-7.47 0c-2.85-2.15-3.16-6.52-.7-9.78s6.76-4.15 9.6-2zm34.78 6.59a4.25 4.25 0 0 1 1.37-1 4.35 4.35 0 0 1 1.78-.35 4.48 4.48 0 0 1 1.54.25 7 7 0 0 1 1.31.65l.41-.61A7.06 7.06 0 0 0 58.7 42a5.6 5.6 0 0 0-1.77-.28A5.07 5.07 0 0 0 52.15 45a5.72 5.72 0 0 0-.38 2 5.48 5.48 0 0 0 .39 2 5.2 5.2 0 0 0 1.07 1.66 4.89 4.89 0 0 0 1.63 1.1 5.1 5.1 0 0 0 2.07.41 5.49 5.49 0 0 0 1.76-.17 6.83 6.83 0 0 0 1.49-.72l-.41-.6a7.13 7.13 0 0 1-1.3.64 4.8 4.8 0 0 1-3.32-.1 4.4 4.4 0 0 1-1.38-1 4.48 4.48 0 0 1-.89-1.46 5.31 5.31 0 0 1 0-3.56 4.21 4.21 0 0 1 .89-1.42zm22.27-1.2a2.59 2.59 0 0 0-1-.62 3.47 3.47 0 0 0-1.15-.19 4.38 4.38 0 0 0-2.36.68 6.79 6.79 0 0 0-1.82 1.6 2.79 2.79 0 0 0-1-1.72 3 3 0 0 0-1.8-.56 4.12 4.12 0 0 0-1.21.18 5.56 5.56 0 0 0-1.09.48 6 6 0 0 0-.93.66 9.45 9.45 0 0 0-.78.77V42h-.75v10.06h.78V44.7a9.16 9.16 0 0 1 1.79-1.56 3.77 3.77 0 0 1 2.08-.63c1.59 0 2.38.93 2.38 2.77v6.79H70v-7.25a6.74 6.74 0 0 1 1.77-1.68 3.8 3.8 0 0 1 2.09-.63c1.59 0 2.39.92 2.39 2.77v6.78H77v-6.85a4.31 4.31 0 0 0-.25-1.55 2.81 2.81 0 0 0-.67-1.06zm9.06 5.51a3.12 3.12 0 0 0-1-.84 9.65 9.65 0 0 0-1.27-.57 11.89 11.89 0 0 1-1.28-.53 3.12 3.12 0 0 1-1-.72 1.66 1.66 0 0 1-.39-1.15 1.79 1.79 0 0 1 .6-1.29 2.36 2.36 0 0 1 1.74-.57 3.63 3.63 0 0 1 1.3.22 4.69 4.69 0 0 1 1.25.71l.36-.61A5.09 5.09 0 0 0 84 42a4.36 4.36 0 0 0-1.52-.24 3.53 3.53 0 0 0-1.29.21 3 3 0 0 0-1 .59 2.57 2.57 0 0 0-.59.83 2.41 2.41 0 0 0 .18 2.3 3.31 3.31 0 0 0 1 .86 8.66 8.66 0 0 0 1.28.58 9.62 9.62 0 0 1 1.28.54 3.57 3.57 0 0 1 1 .73 1.66 1.66 0 0 1 .39 1.15 1.87 1.87 0 0 1-.62 1.45 2.52 2.52 0 0 1-1.75.58 4 4 0 0 1-1.63-.32 7.32 7.32 0 0 1-1.45-.8l-.37.59a7.7 7.7 0 0 0 1.63.86 5.14 5.14 0 0 0 1.82.33 3.61 3.61 0 0 0 1.3-.24 3.17 3.17 0 0 0 1-.6 2.54 2.54 0 0 0 .63-.89 2.63 2.63 0 0 0 .22-1.07 2.21 2.21 0 0 0-.39-1.36z" fill="#fff"/></svg>