<svg xmlns="http://www.w3.org/2000/svg" width="91" height="91"><path d="M62.94 20.37c-4.1-2.54-7.93-3.54-11.8-6.08-2.38-1.62-5.7-5.47-8.47-8.79-.54 5.32-2.16 7.48-4 9-3.93 3.08-6.39 4-9.78 5.86C26 21.84 10.53 31.09 10.53 51s16.73 34.5 35.3 34.5S80.51 72 80.51 51.59s-15.1-29.67-17.57-31.22z" fill="#00598e"/><path d="M56.67 68.23a6.34 6.34 0 0 1 3.47.7 6 6 0 0 1 1.77 2.77 1.08 1.08 0 0 1-.62 1.54c-.53.31-.62.16-1.15-.84s-1-2-3.69-2-3.55.92-4.85 2-1.77 1.46-2.25.84-.31-1.24.54-2a14 14 0 0 1 3.54-2.55 6.77 6.77 0 0 1 3.24-.46zM43.89 77c1.54 1.24 3.85 2.24 8.79 2.24s8.39-1.39 9.93-2.55c.7-.53 1-.08 1.08.23a1.17 1.17 0 0 1-.3 1.31 16.69 16.69 0 0 1-8.1 3.24c-4.17.38-9.78.62-13.17-2.47a1.1 1.1 0 0 1 0-1.62 1.78 1.78 0 0 1 1.15-.53c.45 0 .39 0 .62.15z" fill="#fff"/><path d="M25 71.16c5.86-.09 6.94-1.08 12.11-3.4C65 55.28 70.17 43.88 71.17 41.25s2.47-6.86.92-11.55c-.29-.91-.51-1.64-.66-2.22a38.63 38.63 0 0 0-8.5-7.11c-4-2.54-7.94-3.54-11.79-6.08-2.39-1.54-5.71-5.47-8.48-8.79-.54 5.32-2.08 7.56-4 9-3.93 3.09-6.39 4-9.78 5.86C26 21.91 10.52 31.08 10.52 51a33.44 33.44 0 0 0 4.63 17.1h.76c1.61 1.43 4.16 3.14 9.09 3.06z" fill="#0073ba"/><path d="M62.92 20.37c-4-2.54-7.93-3.54-11.8-6.08-2.38-1.54-5.7-5.47-8.48-8.79-.53 5.32-2.07 7.56-4 9-3.93 3.09-6.39 4-9.78 5.86C26 21.91 10.52 31.08 10.52 51a33.44 33.44 0 0 0 4.63 17.1 35.74 35.74 0 0 0 30.66 17.39c18.58 0 34.68-13.48 34.68-33.91a35.27 35.27 0 0 0-9.07-24.11 38.08 38.08 0 0 0-8.5-7.1zm9.37 9a34.62 34.62 0 0 1 7.62 22.19 34.17 34.17 0 0 1-2.75 13.69 31.52 31.52 0 0 1-7.43 10.51 34.79 34.79 0 0 1-23.91 9.15 35.44 35.44 0 0 1-24.21-9.65A33.16 33.16 0 0 1 11.09 51a32.81 32.81 0 0 1 8-21.81 36.55 36.55 0 0 1 10.07-8.28c.82-.45 1.59-.84 2.32-1.23A41.38 41.38 0 0 0 39 15c1.61-1.22 3.33-3.17 4.06-8.09 2.54 3 5.49 6.44 7.75 7.89a41.72 41.72 0 0 0 6.05 3.15 42.29 42.29 0 0 1 5.74 2.95h.08a36.67 36.67 0 0 1 9.62 8.48z" fill="#004975"/><path d="M43 7a14 14 0 0 1 1 5.5 4.94 4.94 0 0 1-1.66 3.5c-.54.39-.7.69-.7.77 0 .3.7.53.7 1.23s-.39 2.55-4.47 6.63a58.24 58.24 0 0 1-14.49 10c-4.54 2.24-6.7 2.07-7.32 1s.23-3.48 3.08-6.63S31 21.22 31 21.22l11.25-7.86.62-3" fill="#93c5e4"/><path d="M43 7c-.7 5.09-2.25 6.63-4.32 8.25a48.34 48.34 0 0 1-7.62 4.62c-2 1-9.25 5-13 10.79-1.16 1.76 0 2.46.22 2.62s2.86.46 8.48-2.93 8.1-5.39 11.27-8.7c1.7-1.81 1.97-2.82 1.97-3.28s-.39-.77-1-.92c-.31-.09-.39-.23 0-.47s2-1 2.38-1.31 2.24-1.54 2.31-3.55A14.2 14.2 0 0 0 43 7zM25.7 63c.08-6 5.7-11.64 12.79-11.72 9-.08 15.26 8.94 19.81 8.86 3.85-.08 11.25-7.62 14.88-7.62 3.85 0 4.93 4 4.93 6.39s-.77 6.7-2.62 9.4-3 3.7-5.16 3.54c-2.77-.22-8.32-8.85-11.86-9-4.47-.15-14.18 9.33-21.8 9.33-4.62 0-6-.7-7.55-1.7-2.34-1.61-3.5-4.08-3.41-7.46z" fill="#fff"/><path d="M72.08 29.69c1.55 4.71.09 8.94-.92 11.56S65 55.28 37.1 67.76c-5.16 2.32-6.25 3.31-12.11 3.4-4.93.08-7.48-1.63-9.09-3.09h-.76A35.74 35.74 0 0 0 45.8 85.49c18.58 0 34.68-13.48 34.68-33.91a35.29 35.29 0 0 0-9.07-24.11c.16.59.39 1.32.67 2.22z" fill="none"/></svg>