<svg xmlns="http://www.w3.org/2000/svg" width="91" height="91"><path fill="#0074a7" d="M53.6 24.72l1.75 29-27.19-12.4 25.44-16.6z"/><path fill="#0096c2" d="M54.38 24.98l-22.65-5.24-2.8 22.42 25.45-17.18z"/><path fill="#00628e" d="M54.83 54.69l15.64-16.86-17.9-14.21 2.26 31.07z"/><path fill="#00628e" d="M56.83 53.4l-21.95 8.83-6.98-22.59L56.83 53.4z"/><path fill="#6eafcc" d="M53.73 26.4l-22-6.66 24.88-1.78-2.88 8.44z"/><path fill="#0096c2" d="M52.73 26.11l17.74 11.72-13.86-19.87-3.88 8.15z"/><path fill="#004365" d="M34.88 62.23L30.22 38.8l-9.38 2.78 14.04 20.65z"/><path fill="#0074a7" d="M30.66 40.99l1.07-21.25-10.89 21.84 9.82-.59z"/><path fill="#004365" d="M70.47 37.83L53.02 53.85l6.86 6.48 10.59-22.5z"/><path fill="#005279" d="M54.64 52.35l-19.76 9.88 25-1.9-5.24-7.98z"/><path d="M13 65.21h3.82V66h-3.06v2.39h3.06v.75h-3.06v3.75H13zm12.85 3.88a4 4 0 0 1-4 4h-.11a4 4 0 1 1 4-4zm-7.24 0a3.19 3.19 0 0 0 3.13 3.23h.08a3.26 3.26 0 0 0 0-6.51A3.22 3.22 0 0 0 18.61 69zm8.79-3.88h1.74a5.93 5.93 0 0 1 1.78.19 1.88 1.88 0 0 1 1.32 1.84 1.91 1.91 0 0 1-.22.94c-.4.8-1.16 1.11-2.41 1.11l2.74 3.54h-1l-2.73-3.54h-.43v3.54h-.77zm.77.74v2.64h1.32a2.43 2.43 0 0 0 1.51-.33 1.36 1.36 0 0 0 .46-1c0-.75-.52-1.32-1.66-1.32zm5.3 6.88l1.08-7.62h.12l3.09 6.25 3.13-6.25H41l1.09 7.62h-.75l-.74-5.46-2.6 5.46h-.18l-2.74-5.49-.73 5.49z"/><path d="M45.72 66v-.74h4.18V66h-1.69v6.88h-.73V66zm12.97 3.09a4 4 0 0 1-3.95 4h-.11a4 4 0 1 1 4-4zm-7.26 0a3.18 3.18 0 0 0 3.12 3.23h.08a3.26 3.26 0 1 0 0-6.51 3.21 3.21 0 0 0-3.2 3.19zm16.49 0a4 4 0 0 1-4 4h-.1a4 4 0 1 1 4-4zm-7.26 0a3.18 3.18 0 0 0 3.12 3.23h.08a3.26 3.26 0 0 0 0-6.51 3.2 3.2 0 0 0-3.2 3.2zm8.77-3.88h.77v6.87h2.92v.75h-3.69zm7.85 1.53c-.43-.54-.78-.93-1.42-.93a1 1 0 0 0-1 .89v.07a1.54 1.54 0 0 0 .68 1.17C77 69 78 69.73 78 71a2.09 2.09 0 0 1-2.12 2 2.55 2.55 0 0 1-2.3-1.61l.62-.39c.47.84 1 1.32 1.6 1.32a1.32 1.32 0 0 0 1.41-1.23V71c0-.84-.78-1.32-2.52-2.72a2 2 0 0 1-.64-1.46 1.78 1.78 0 0 1 1.76-1.79h.08a2.45 2.45 0 0 1 2 1.24z" fill="#999"/></svg>