<svg xmlns="http://www.w3.org/2000/svg" width="91" height="91"><path d="M24.71 45.77l-1.24-1.25a14.39 14.39 0 0 1-3.63-14.3 8.7 8.7 0 1 1 10.51-9.86 14.42 14.42 0 0 1 13.49 3.84l.49.5-6.43 6.39-.5-.5a5.34 5.34 0 0 0-7.53 7.55l1.26 1.25 6.41 6.38 6.78 6.78L37.91 59l-6.78-6.77-6.42-6.45" fill="#86be3c"/><path d="M31.89 38.63l6.78-6.78 6.43-6.41 1.27-1.26a14.4 14.4 0 0 1 14.23-3.64 8.69 8.69 0 1 1 9.76 9.82 14.39 14.39 0 0 1-3.66 14.18l-.5.5-6.41-6.42.5-.5a5.32 5.32 0 0 0-7.44-7.62l-.09.1-1.26 1.24-6.41 6.42L38.32 45l-6.43-6.41" fill="#e4b645"/><path d="M60.78 71a14.41 14.41 0 0 1-14.41-3.58l-.49-.49 6.39-6.42.49.49a5.32 5.32 0 1 0 7.68-7.37v-.06l-.09-.09L59 52.22l-6.42-6.45L45.85 39l6.42-6.39 6.78 6.78 6.4 6.38 1.25 1.29a14.41 14.41 0 0 1 3.82 13.6A8.7 8.7 0 1 1 60.77 71" fill="#c33734"/><path d="M58.28 53l-6.78 6.75-6.4 6.42-1.26 1.26a14.38 14.38 0 0 1-13.67 3.79A8.7 8.7 0 1 1 19.69 60.8a14.37 14.37 0 0 1 3.78-13.75l.49-.49L30.37 53l-.5.49A5.35 5.35 0 0 0 37.43 61l1.25-1.26 6.41-6.42 6.78-6.77L58.28 53" fill="#748ec4"/></svg>