<svg xmlns="http://www.w3.org/2000/svg" xmlns:xlink="http://www.w3.org/1999/xlink" width="91" height="91"><defs><linearGradient id="b" x1="-315.73" y1="328.32" x2="-288" y2="328.32" gradientTransform="matrix(1.94 0 0 -1.94 635.02 662.21)" gradientUnits="userSpaceOnUse"><stop offset="0" stop-color="#11801a"/><stop offset=".01" stop-color="#11811a"/><stop offset=".4" stop-color="#0f9c2f"/><stop offset=".74" stop-color="#0eac3c"/><stop offset="1" stop-color="#0eb240"/></linearGradient><linearGradient id="a" x1="-319.29" y1="306.08" x2="-292.29" y2="306.08" gradientTransform="matrix(1.94 0 0 -1.94 635.02 662.21)" gradientUnits="userSpaceOnUse"><stop offset="0" stop-color="#39ae00"/><stop offset=".31" stop-color="#44c000"/><stop offset=".7" stop-color="#4ed000"/><stop offset="1" stop-color="#51d600"/></linearGradient><linearGradient id="c" x1="-319.29" y1="317.9" x2="-292.29" y2="317.9" xlink:href="#a"/><linearGradient id="d" x1="-319.29" y1="322" x2="-292.29" y2="322" xlink:href="#a"/><linearGradient id="e" x1="-319.29" y1="311.06" x2="-292.29" y2="311.06" xlink:href="#a"/></defs><path d="M23.73 19.24a17.4 17.4 0 0 1 5.78 1.08 32.74 32.74 0 0 1 5.36 2.43 47.46 47.46 0 0 1 4.9 3.15c.78.57 1.55 1.18 2.3 1.8.37.31.75.62 1.12.95l.55.5.28.26.29.27h-5.43l.47-.57.46-.51c.3-.33.61-.66.92-1 .62-.63 1.25-1.23 1.89-1.82s1.3-1.15 2-1.71c.33-.27.68-.55 1-.8l.52-.41.51-.38c1.38-1 2.83-2 4.3-2.89a46.22 46.22 0 0 1 4.56-2.42 46.8 46.8 0 0 1 9.75-3.34 40.1 40.1 0 0 1 5.09-.77 30.66 30.66 0 0 1 5.16 0c-.72.5-1.45.92-2.17 1.36l-1.08.66-.54.33-.53.33c-1.42.85-2.79 1.71-4.17 2.55C64.26 20 61.6 21.74 59 23.5s-5.14 3.56-7.62 5.43l-1.83 1.42c-.63.47-1.21.95-1.82 1.43s-1.19 1-1.78 1.47c-.29.24-.59.49-.86.73l-.77.68L41 37.55l-2.15-2.88a1.18 1.18 0 0 0-.18-.21l-.2-.24-.42-.52-.87-1c-.58-.68-1.15-1.34-1.76-2-1.19-1.33-2.38-2.66-3.61-4s-2.5-2.61-3.82-3.85a44.54 44.54 0 0 0-4.26-3.61z" fill="url(#b)"/><path d="M41.83 67.69a15.9 15.9 0 0 1-14.26-8.86l-9.49 4.05A26.28 26.28 0 0 0 41.83 78a26 26 0 0 0 9.43-1.76l-4.07-9.49a15.11 15.11 0 0 1-5.36.94z" fill="url(#a)"/><path d="M25.92 51.76a15.92 15.92 0 0 1 7.69-13.62l-6.67-8A26.26 26.26 0 0 0 15.6 51.76a26.72 26.72 0 0 0 1.6 9l9.51-4.09a15.91 15.91 0 0 1-.79-4.94z" fill="url(#c)"/><path d="M57.67 30.86l-8.9 6.57a15.79 15.79 0 0 1 7.06 6.75l9.49-4.09a26.49 26.49 0 0 0-7.65-9.23z" fill="url(#d)"/><path d="M68.07 51.76a26 26 0 0 0-1.81-9.58l-9.49 4.08a15.89 15.89 0 0 1-7.49 19.58l4.07 9.49a26.29 26.29 0 0 0 14.72-23.57z" fill="url(#e)"/></svg>