<svg xmlns="http://www.w3.org/2000/svg" width="91" height="91"><defs><linearGradient id="a" x1="-1204" y1="803.96" x2="-1204" y2="804.06" gradientTransform="matrix(2498.56 0 0 -485.74 3008311.8 390579.23)" gradientUnits="userSpaceOnUse"><stop offset="0" stop-color="#04b6f0"/><stop offset="1" stop-color="#3ecaf0"/></linearGradient></defs><path d="M21.44 69a4.71 4.71 0 0 1-1.14 3.21 3.89 3.89 0 0 1-3.08 1.36 3.86 3.86 0 0 1-3.08-1.36 5.09 5.09 0 0 1 0-6.42 3.94 3.94 0 0 1 3.08-1.35 3.94 3.94 0 0 1 3.08 1.35A4.67 4.67 0 0 1 21.44 69zm-2.51 0a2.47 2.47 0 0 0-.42-1.46 1.58 1.58 0 0 0-2.21-.37 1.67 1.67 0 0 0-.38.37A2.47 2.47 0 0 0 15.5 69a2.54 2.54 0 0 0 .42 1.47 1.6 1.6 0 0 0 2.22.37 1.62 1.62 0 0 0 .37-.37 2.54 2.54 0 0 0 .42-1.47zm11.58 0a4.91 4.91 0 0 1-1 3.11 3.42 3.42 0 0 1-2.84 1.46 3.1 3.1 0 0 1-2.06-.7v1.79c0 1.49-.45 2.24-1.33 2.23a1.18 1.18 0 0 1-.9-.38 1.35 1.35 0 0 1-.35-.93V65.9a1.24 1.24 0 0 1 .36-.91 1.2 1.2 0 0 1 .89-.39 1.23 1.23 0 0 1 1.17.8 2.64 2.64 0 0 1 2.15-1 3.44 3.44 0 0 1 2.84 1.45 4.94 4.94 0 0 1 1 3.12zM28 69a2.47 2.47 0 0 0-.42-1.46 1.59 1.59 0 0 0-2.21-.37 1.49 1.49 0 0 0-.38.37 2.46 2.46 0 0 0-.41 1.46 2.54 2.54 0 0 0 .42 1.47 1.6 1.6 0 0 0 2.22.37 1.62 1.62 0 0 0 .37-.37A2.57 2.57 0 0 0 28 69zm11.63-.27a1.09 1.09 0 0 1-.29.87 1.42 1.42 0 0 1-.93.24h-4.52a1.22 1.22 0 0 0 .67 1.16 2.68 2.68 0 0 0 1.33.3 3.54 3.54 0 0 0 1.47-.4 3.69 3.69 0 0 1 1.11-.4 1 1 0 0 1 .74.32 1.14 1.14 0 0 1 .3.77c0 .68-.51 1.22-1.54 1.6a6.7 6.7 0 0 1-2.39.44 4.14 4.14 0 0 1-3.17-1.3A4.62 4.62 0 0 1 31.2 69a4.55 4.55 0 0 1 1.26-3.22 4.11 4.11 0 0 1 3.12-1.34 3.78 3.78 0 0 1 2.89 1.26 4.36 4.36 0 0 1 1.17 3zm-2.51-.63a1.45 1.45 0 0 0-.53-1 1.55 1.55 0 0 0-1.08-.47 1.62 1.62 0 0 0-1.11.47 1.41 1.41 0 0 0-.51 1zm10.94 4a1.29 1.29 0 0 1-.35.93 1.13 1.13 0 0 1-.89.39c-.88 0-1.32-.7-1.32-2.09q0-.39.06-1.26V68.8c0-1.47-.47-2.21-1.43-2.21s-1.42.74-1.42 2.21v1.27c0 .58.05 1 .05 1.26 0 1.39-.44 2.09-1.3 2.09a1.15 1.15 0 0 1-.9-.39 1.31 1.31 0 0 1-.34-.93v-6.2a1.26 1.26 0 0 1 .34-.92 1.18 1.18 0 0 1 .9-.38 1.26 1.26 0 0 1 1.25.8 2.35 2.35 0 0 1 2.15-1 3.25 3.25 0 0 1 2.26.76 2.87 2.87 0 0 1 .85 2.21v4.69zm7.88-.26q0 .86-1.11 1.35a4.62 4.62 0 0 1-1.87.4 3.9 3.9 0 0 1-3.08-1.37 5.07 5.07 0 0 1 0-6.44A3.87 3.87 0 0 1 53 64.44a5 5 0 0 1 1.88.32 1.44 1.44 0 0 1 1.09 1.35 1.29 1.29 0 0 1-.3.82.9.9 0 0 1-.74.35 3.05 3.05 0 0 1-.88-.2 2.87 2.87 0 0 0-.91-.21 1.66 1.66 0 0 0-1.4.64 2.29 2.29 0 0 0-.5 1.49 2.44 2.44 0 0 0 .42 1.45 1.51 1.51 0 0 0 1.3.69 3.56 3.56 0 0 0 1-.22 3.61 3.61 0 0 1 .93-.22 1 1 0 0 1 .72.35 1.25 1.25 0 0 1 .31.78zm9.11.26a1.32 1.32 0 0 1-.34.93 1.16 1.16 0 0 1-.91.39 1.22 1.22 0 0 1-1.17-.8 2.62 2.62 0 0 1-2.15 1 3.42 3.42 0 0 1-2.85-1.46 5.31 5.31 0 0 1 0-6.23 3.47 3.47 0 0 1 2.85-1.44 2.62 2.62 0 0 1 2.15 1A1.25 1.25 0 0 1 64.7 65a1.32 1.32 0 0 1 .36.91v6.19zM62.54 69a2.44 2.44 0 0 0-.41-1.46 1.53 1.53 0 0 0-1.3-.67 1.51 1.51 0 0 0-1.3.67 2.46 2.46 0 0 0-.41 1.46 2.61 2.61 0 0 0 .4 1.47 1.53 1.53 0 0 0 1.32.67 1.45 1.45 0 0 0 1.29-.67 2.52 2.52 0 0 0 .42-1.47zm8.91-3.26a1.1 1.1 0 0 1-.78 1.1l-1.45.5a1.76 1.76 0 0 0-.78 1.66v3.08a1.32 1.32 0 0 1-.36.93 1.24 1.24 0 0 1-1.76 0 1.32 1.32 0 0 1-.35-.93V65.9a1.27 1.27 0 0 1 .35-.92 1.18 1.18 0 0 1 .9-.38 1.26 1.26 0 0 1 1.25.8 2.26 2.26 0 0 1 1.73-1 1.23 1.23 0 0 1 .91.39 1.3 1.3 0 0 1 .38.91zm6.55.11a1 1 0 0 1-.65 1.06A5.32 5.32 0 0 1 76 67v5.07a1.29 1.29 0 0 1-.35.93 1.23 1.23 0 0 1-1.75 0 1.33 1.33 0 0 1-.37-.93V67a2.42 2.42 0 0 1-1.12-.19 1 1 0 0 1-.49-1 1 1 0 0 1 .5-1 2.35 2.35 0 0 1 1.11-.19v-1q0-1.89 1.26-1.89c.83 0 1.25.63 1.25 1.89v1.08a4.79 4.79 0 0 1 1.34.11 1 1 0 0 1 .66 1zm-2.85-38.94c0-2.5-4.64-3.63-16.57-3.63-28 0-35.12-1.2-42.73-9.2 3.2 4.81 5 13.82 34.55 13.37C81.29 27 62.45 35.41 57 45c9.9-8.82 18.15-14.64 18.19-18zM35.79 52.53a4.24 4.24 0 1 1-4.24-4.23 4.23 4.23 0 0 1 4.23 4.24zm19.29 0a4.24 4.24 0 1 1-4.24-4.23 4.23 4.23 0 0 1 4.23 4.24z" fill="url(#a)"/></svg>