<svg xmlns="http://www.w3.org/2000/svg" width="91" height="91"><path d="M23.9 24.54a15.56 15.56 0 0 0-5.78 30.14V34.93h11.06V55L83 54.91 67.52 25.05l-9.7 18.75-9.14-9.65-9.42 10a15.14 15.14 0 0 0 .54-4 15.76 15.76 0 0 0-15.9-15.61z" fill="#f48a1a"/><path d="M18.12 34.93l6.74 2.26v20.63l-6.75-2.17z" fill="#c9c9c9"/><path d="M14.67 61.56c0 2-1.23 3.1-2.73 3.1a2.7 2.7 0 0 1-2.65-3A2.79 2.79 0 0 1 12 58.58a2.68 2.68 0 0 1 2.67 2.98zm-4.57.1c0 1.25.69 2.38 1.88 2.38s1.89-1.11 1.89-2.44c0-1.17-.62-2.4-1.88-2.4s-1.89 1.16-1.89 2.46zm5.53.05v-1.38h.69v.73a1.67 1.67 0 0 1 1.5-.82 1.91 1.91 0 0 1 1.79 2.15 2 2 0 0 1-1.92 2.27 1.48 1.48 0 0 1-1.3-.67v2.3h-.76zm.76 1.13v.32a1.19 1.19 0 0 0 1.15.9c.82 0 1.29-.67 1.29-1.64s-.45-1.57-1.26-1.57a1.34 1.34 0 0 0-1.22 1.27zm4.61-.25a1.36 1.36 0 0 0 1.45 1.47 2.93 2.93 0 0 0 1.17-.22l.13.55a3.41 3.41 0 0 1-1.4.27 2 2 0 0 1-2.09-2.14 2.06 2.06 0 0 1 2-2.28 1.8 1.8 0 0 1 1.75 2v.35zm2.29-.59a1.09 1.09 0 0 0-1.07-1.25A1.27 1.27 0 0 0 21 62zm1.71-.52v-1.14h.68l.05.69a1.55 1.55 0 0 1 1.4-.79c.58 0 1.49.35 1.49 1.8v2.53h-.76v-2.44c0-.69-.25-1.25-1-1.25A1.12 1.12 0 0 0 25.75 62v2.54H25zm7.35 3.09l-1.49-5.89h.81l.7 3c.17.73.33 1.46.43 2 .1-.58.28-1.28.48-2l.78-3h.8l.71 3c.17.7.32 1.4.41 2 .12-.65.29-1.3.47-2l.78-3h.78l-1.67 5.89h-.8l-.74-3.07a18.1 18.1 0 0 1-.38-1.92c-.12.64-.27 1.29-.45 1.92l-.84 3.07zm6.55-1.98a1.36 1.36 0 0 0 1.45 1.47 2.77 2.77 0 0 0 1.17-.22l.13.55a3.42 3.42 0 0 1-1.41.27 2 2 0 0 1-2.08-2.14 2.06 2.06 0 0 1 2-2.28 1.8 1.8 0 0 1 1.75 2 2.16 2.16 0 0 1 0 .35zm2.25-.59a1.09 1.09 0 0 0-1.07-1.25A1.28 1.28 0 0 0 38.9 62zm1.66 2.57v-6.21h.76V61a1.58 1.58 0 0 1 1.45-.77 1.89 1.89 0 0 1 1.78 2.15 2 2 0 0 1-1.8 2.28 1.5 1.5 0 0 1-1.41-.8v.7zm.8-1.7a1.27 1.27 0 0 0 0 .28 1.19 1.19 0 0 0 1.16.9c.8 0 1.28-.66 1.28-1.63s-.44-1.57-1.26-1.57a1.23 1.23 0 0 0-1.17.94 1.75 1.75 0 0 0 0 .32zm7.04-.16L50 64.57h-.79l2-5.89h.92l2 5.89h-.81l-.63-1.85zm1.93-.59l-.58-1.7c-.13-.38-.22-.73-.31-1.07-.09.35-.19.71-.3 1.07l-.58 1.71zm2.42-.64v-1.14h.68v.69a1.55 1.55 0 0 1 1.4-.79c.58 0 1.49.35 1.49 1.8v2.53h-.77v-2.44c0-.69-.25-1.25-1-1.25a1.07 1.07 0 0 0-1 .78 1.12 1.12 0 0 0-.05.36v2.54H55zm7.18 3.09l-.06-.57a1.58 1.58 0 0 1-1.29.63 1.21 1.21 0 0 1-1.3-1.22c0-1 .91-1.58 2.54-1.57v-.09a.87.87 0 0 0-1-1 2.12 2.12 0 0 0-1.1.31l-.18-.5a2.71 2.71 0 0 1 1.39-.38c1.3 0 1.61.88 1.61 1.73v1.59a5.65 5.65 0 0 0 .07 1zm-.12-2.16c-.84 0-1.79.13-1.79 1a.69.69 0 0 0 .73.74 1.07 1.07 0 0 0 1-.71.69.69 0 0 0 0-.25zm1.99-4.05h.77v6.21h-.77zm2.34 1.98l.93 2.49c.09.28.2.61.26.87.08-.25.17-.58.27-.89l.84-2.48h.81l-1.15 3A6.41 6.41 0 0 1 66.92 66a2 2 0 0 1-1 .5l-.19-.64a1.85 1.85 0 0 0 .67-.38 2.31 2.31 0 0 0 .65-.86.48.48 0 0 0 .06-.18.65.65 0 0 0 0-.2l-1.57-3.9zm4.76-1.22v1.22h1.1v.58h-1.1v2.28c0 .52.15.82.58.82a1.61 1.61 0 0 0 .44 0v.57a1.77 1.77 0 0 1-.68.11 1.09 1.09 0 0 1-.84-.32 1.57 1.57 0 0 1-.3-1.1v-2.36h-.65v-.58h.65v-1zm2.85.03a.45.45 0 0 1-.49.47.46.46 0 0 1-.46-.45.46.46 0 0 1 .46-.48.46.46 0 0 1 .47.44zm-.85 5.41v-4.22h.76v4.23zm5.02-.15a3 3 0 0 1-1.21.25 2 2 0 0 1-2.1-2.16 2.16 2.16 0 0 1 2.27-2.25 2.66 2.66 0 0 1 1.07.22l-.18.6a1.74 1.74 0 0 0-.89-.21 1.6 1.6 0 0 0 0 3.19 2.16 2.16 0 0 0 .94-.22zm.83-.63a2 2 0 0 0 1 .3c.56 0 .82-.28.82-.63s-.22-.56-.78-.77c-.76-.27-1.12-.69-1.12-1.2a1.3 1.3 0 0 1 1.46-1.24 2.23 2.23 0 0 1 1 .26l-.19.56a1.65 1.65 0 0 0-.87-.24c-.45 0-.71.26-.71.57s.25.51.81.72c.73.28 1.1.64 1.1 1.27S81 64.65 80 64.65a2.38 2.38 0 0 1-1.19-.29z"/></svg>