<svg xmlns="http://www.w3.org/2000/svg" width="91" height="91"><path d="M25 15.54c-5.33 0-9.38 3.74-9.38 8.69 0 18.33 32 47.46 50.7 47.46 5.79 0 9.3-3.07 9.3-8.77C75.59 45.63 44.45 15.54 25 15.54zm37.08 52.37c-18.24 0-42.54-28.33-42.54-39.65a7.55 7.55 0 0 1 7.28-7.8c17.8 0 43.18 26.4 43.18 40.26 0 4-2.81 7.19-7.9 7.19z" fill="#04688d"/><path d="M66.29 22C43.83 22 10.5 41.68 10.5 56.68c0 5.18 6 8.6 14.82 8.6 22.2 0 55.18-19.65 55.18-34.73 0-5.27-5.79-8.55-14.21-8.55zM29 62.3c-9 0-13.16-3.37-13.16-7.54 0-12.28 26.58-28.07 47.9-28.07 6.06 0 11 3.37 11 7.54C74.71 46.07 48.22 62.3 29 62.3z" fill="#f6a504"/><path d="M57.43 9.67C42.52 9.67 20.76 40 20.76 63c0 10.13 4.83 18.33 12.2 18.33 17.1 0 37-30.35 37-54.91.04-9.26-5.6-16.75-12.53-16.75zM32.25 76.51c-5.61 0-9.56-5.79-9.56-13.69 0-21 17.9-48.15 32.46-48.15 5.48 0 9.91 6.24 9.91 13.94 0 22.11-17.81 47.9-32.81 47.9z" fill="#585858"/><circle cx="46.29" cy="45.54" r="3.16"/></svg>