<svg xmlns="http://www.w3.org/2000/svg" width="91" height="91"><path d="M68.83 75.33L64.57 78H25.26c-2.48 0-6.19-1-6.19-8.86V13h49.76z" fill="#e7e7e7"/><path fill="#bbbdbf" d="M24.58 20.12h38.63v1.61H24.58zm0 6.06h38.63v1.61H24.58zm0 6.07h38.63v1.61H24.58zm0 6.07h38.63v1.61H24.58zm0 6.06h38.63v1.61H24.58zm0 6.07h38.63v1.61H24.58zm0 6.07h38.63v1.61H24.58zm46.79 9.4c1.74 4 .23 9.29-2.47 12.07H25.22c6.31-3.09 4.81-9.22 3.57-12.07z"/><ellipse cx="43.83" cy="43.08" rx="24.95" ry="11.58" fill="#5a6679"/><path d="M37.09 39.73c1.21 0 1.7.12 2.17.56a2.9 2.9 0 0 1 .67 2.8 3.93 3.93 0 0 1-1.26 2.31 3.46 3.46 0 0 1-2.49.85H34.6l-.43 2.44h-1.79L34 39.74zm-2.24 5.12h1.09A2 2 0 0 0 38.12 43c.21-1.18-.29-1.84-1.38-1.84H35.5zm8.45-5.12h1.84c1.89 0 2.53.67 2.24 2.45l-.72 4.07h-1.79l.65-3.71c.23-1.11 0-1.42-1-1.42h-1.46l-.9 5.12h-1.8l1.57-8.92h1.79zm8.99 0c1.21 0 1.7.12 2.17.56a2.9 2.9 0 0 1 .67 2.8 3.93 3.93 0 0 1-1.26 2.31 3.47 3.47 0 0 1-2.49.84H49.8l-.43 2.45h-1.79l1.58-9zm-2.24 5.12h1.1A2 2 0 0 0 53.33 43c.2-1.18-.3-1.84-1.39-1.84h-1.23z" fill="#fff"/></svg>