<svg xmlns="http://www.w3.org/2000/svg" width="91" height="91"><path d="M25.88 67.37a2 2 0 0 1 .66-1.81A2.28 2.28 0 0 1 28 65a1.53 1.53 0 0 1 1.49.81zm5.19-1a2.46 2.46 0 0 0-.9-1.94 3.37 3.37 0 0 0-2.23-.74 3.59 3.59 0 0 0-1.61.37 3.21 3.21 0 0 0-1.28 1.17 3.33 3.33 0 0 0-.52 1.84 3.19 3.19 0 0 0 1 2.44 3.43 3.43 0 0 0 2.38.92 3.7 3.7 0 0 0 2.76-1.21l-.81-.9a2.27 2.27 0 0 1-1.82.87 2.15 2.15 0 0 1-1.74-.79l4.78-2zM23 64.13a2.94 2.94 0 0 0-.91 1v-1.3h-1.41v6.54h1.37v-2.8a2.88 2.88 0 0 1 .52-1.79 1.85 1.85 0 0 1 1.54-.66h.07v-1.39a2.16 2.16 0 0 0-1.21.4M36 67a4.26 4.26 0 0 0-.62-.35l-.6-.22-.71-.2a2.39 2.39 0 0 1-.62-.21.47.47 0 0 1-.32-.46.57.57 0 0 1 .31-.54 1.55 1.55 0 0 1 .8-.18 3 3 0 0 1 1.73.53l.52-1a3.81 3.81 0 0 0-2.14-.66 2.94 2.94 0 0 0-1.84.54 1.75 1.75 0 0 0-.71 1.46c0 .86.68 1.48 2 1.84l.15.05c.87.27 1.3.56 1.3.89a.69.69 0 0 1-.27.55 1.18 1.18 0 0 1-.74.21 3.71 3.71 0 0 1-2.22-.86l-.65 1.07a4.25 4.25 0 0 0 1.36.73 4.9 4.9 0 0 0 1.48.26 2.64 2.64 0 0 0 1.79-.54 1.89 1.89 0 0 0 .68-1.5A1.56 1.56 0 0 0 36 67m-18.22-.93a2.19 2.19 0 0 1-1.64.46h-1.69v-3.44h1.48a3.15 3.15 0 0 1 1.73.37 1.38 1.38 0 0 1 .55 1.26 1.9 1.9 0 0 1-.43 1.35m1-3.55a4.43 4.43 0 0 0-2.78-.75h-3v8.59h1.45v-2.51H16a4.45 4.45 0 0 0 2.81-.73 2.72 2.72 0 0 0 .91-2.28 2.85 2.85 0 0 0-.89-2.31m21.06 6.75a.87.87 0 0 1-.68-.28 1.05 1.05 0 0 1-.25-.74v-3.33h1.72v-1.1H39v-2.06h-1.41v6.45a2.17 2.17 0 0 0 .62 1.64 2 2 0 0 0 1.5.6 2.31 2.31 0 0 0 1.6-.65l-.56-1a1.19 1.19 0 0 1-.85.44m6.3-.6a1.83 1.83 0 0 1-1.38.6 1.93 1.93 0 0 1-1.41-.59 2 2 0 0 1-.61-1.53 2.26 2.26 0 0 1 .59-1.57 1.92 1.92 0 0 1 1.42-.63 1.85 1.85 0 0 1 1.39.63 2.28 2.28 0 0 1 .56 1.56 2.13 2.13 0 0 1-.56 1.53m.54-3.65a2.5 2.5 0 0 0-2.13-1.23 3.12 3.12 0 0 0-2.24.91 3.24 3.24 0 0 0-.95 2.44 3.36 3.36 0 0 0 .93 2.46 2.93 2.93 0 0 0 2.16.93 2.76 2.76 0 0 0 1.23-.3 2.7 2.7 0 0 0 1-.87v1.07h1.38v-6.58h-1.38z" fill="#27245d"/><path d="M68.54 68.64a2.13 2.13 0 0 1-3 0A2.1 2.1 0 0 1 65 67.1a2.14 2.14 0 0 1 .59-1.55 2.15 2.15 0 0 1 3 0 2.13 2.13 0 0 1 .58 1.55 2.11 2.11 0 0 1-.58 1.54m-1.48-4.91a3.37 3.37 0 0 0-2.46 1 3.38 3.38 0 0 0 0 4.78 3.33 3.33 0 0 0 2.46 1 3.37 3.37 0 0 0 2.46-1 3.4 3.4 0 0 0 0-4.78 3.34 3.34 0 0 0-2.46-1M76 68.65a2 2 0 0 1-1.41.59 1.83 1.83 0 0 1-1.38-.6 2.15 2.15 0 0 1-.56-1.53 2.28 2.28 0 0 1 .56-1.56 1.84 1.84 0 0 1 1.39-.62 1.94 1.94 0 0 1 1.42.62 2.22 2.22 0 0 1 .59 1.57 2 2 0 0 1-.61 1.53m1-4a3.08 3.08 0 0 0-2.25-.91A2.44 2.44 0 0 0 72.69 65v-1.17h-1.38v8.93h1.38v-3.37a2.87 2.87 0 0 0 4.38.13 3.36 3.36 0 0 0 .93-2.46 3.2 3.2 0 0 0-.94-2.42m-16.65-.91a2.62 2.62 0 0 0-1.29.34 2.15 2.15 0 0 0-.89 1v-3.82h-1.38v9.12h1.38v-3.54a1.75 1.75 0 0 1 .53-1.39A1.83 1.83 0 0 1 60 65c1 0 1.5.6 1.5 1.81v3.59h1.38v-4a2.61 2.61 0 0 0-.69-2 2.42 2.42 0 0 0-1.78-.68m-5.21 2.52a4.61 4.61 0 0 0-2-.9 5.86 5.86 0 0 1-1.73-.6.9.9 0 0 1-.4-.8.85.85 0 0 1 .4-.78 1.93 1.93 0 0 1 1-.26 4.08 4.08 0 0 1 1.29.23 2.79 2.79 0 0 1 1 .56l.78-1.09a4.51 4.51 0 0 0-1.41-.77 5.29 5.29 0 0 0-1.63-.26 3.51 3.51 0 0 0-2.15.64 2.15 2.15 0 0 0-.87 1.84 2.08 2.08 0 0 0 .77 1.77 3.19 3.19 0 0 0 .88.5 12.27 12.27 0 0 0 1.43.42 4.13 4.13 0 0 1 1.34.5.93.93 0 0 1 .39.78 1 1 0 0 1-.42.8 1.85 1.85 0 0 1-1.11.3A4.12 4.12 0 0 1 50.13 68l-.91 1.09a5.22 5.22 0 0 0 3.58 1.39 3.38 3.38 0 0 0 2.23-.7 2.3 2.3 0 0 0 .85-1.78 2.14 2.14 0 0 0-.68-1.71" fill="#e2056f"/><path d="M38.53 48.65q.47-.21 1-.39c.36-.13.73-.27 1.1-.38s.94-.27 1.41-.37q1-.19 2-.3c-.37 1.15-.77 2.3-1.22 3.43v.67a13.94 13.94 0 0 1 5.46 0v-.67c-.43-1.13-.84-2.28-1.21-3.43.66.07 1.3.17 1.94.3.48.1.94.23 1.41.37s.74.24 1.11.38.65.25 1 .39a17.24 17.24 0 0 1 6 4.41 19.82 19.82 0 1 0-25.9 0 17.24 17.24 0 0 1 5.9-4.41z" fill="#a0dbe8"/><path d="M39.83 52.24a14 14 0 0 1 2.94-.93v-.66c.44-1.14.84-2.28 1.21-3.43a16 16 0 0 0-1.94.3c-.48.1-.94.22-1.41.36s-.74.25-1.11.38l1.44.35zm-3.4 2.13v-1.11a.42.42 0 0 1 .42-.42h.36l1.27-4.19a17.24 17.24 0 0 0-6 4.41 20.27 20.27 0 0 0 3 2.13c.35-.28.64-.55.95-.82zm16.05-5.72l1.27 4.2h.36a.41.41 0 0 1 .41.41 10.51 10.51 0 0 0 .06 1.12c.3.26.6.53.88.82a20.34 20.34 0 0 0 3-2.14 17.3 17.3 0 0 0-5.98-4.41zm-2.41-.04l1.44-.35c-.36-.13-.73-.27-1.1-.38s-.94-.27-1.41-.37q-1-.19-2-.3c.37 1.15.78 2.3 1.22 3.43v.67a13.77 13.77 0 0 1 2.94.93z" fill="#525353"/><path d="M45.5 52.85h2.8a11.34 11.34 0 0 1-.07-1.54 13.94 13.94 0 0 0-5.46 0 11.34 11.34 0 0 1-.07 1.54zm-9.96 2.35l.7.39c.08-.4.15-.81.19-1.22-.31.27-.6.54-.89.83z"/><path d="M39.65 52.85h3.06a11.33 11.33 0 0 0 .06-1.54 13.69 13.69 0 0 0-2.93.93zm14.93 1.52c0 .41.1.82.18 1.22l.7-.4c-.28-.28-.58-.55-.88-.82zm-3.23-1.52l-.18-.61a14 14 0 0 0-2.94-.93 9.87 9.87 0 0 0 .07 1.54z"/><path d="M39.65 52.85l.18-.61 1.1-3.63-1.44-.35c-.32.12-.65.25-1 .39l-1.27 4.2zm11.52-.61l.18.61h2.4l-1.27-4.2c-.32-.15-.64-.27-1-.39l-1.44.35z" fill="#aa9678"/><path d="M37.3 53.69zm8.2-.02h-8.16A12.49 12.49 0 0 1 37 56a19.84 19.84 0 0 0 8.5 1.91z" fill="#c0b098"/><path d="M53.7 53.67zm-.04 0H45.5v4.21A19.81 19.81 0 0 0 54 56a12.49 12.49 0 0 1-.3-2.28z" fill="#aa9678"/><path d="M54.58 54.37a10.32 10.32 0 0 1-.06-1.11.42.42 0 0 0-.41-.42H36.9a.42.42 0 0 0-.42.42v1.11c0 .37-.11.82-.19 1.22L37 56a12.49 12.49 0 0 0 .3-2.28h16.4A12.49 12.49 0 0 0 54 56l.76-.38c-.08-.43-.14-.84-.18-1.25z" fill="#8b7460"/><path d="M52.17 35a16.53 16.53 0 0 1 .68 2.17v.16a1.43 1.43 0 0 1 0 .22c0-.1 0-.22.06-.35a16.07 16.07 0 0 0-.74-2.2zM58 39.52zm.08-.1zm-6.5-4.9a12.64 12.64 0 0 0-1.44-1.05 12.64 12.64 0 0 1 1.44 1.05zm4.6 4.75zm.82 1.05zm-4.21-2.69v.15c0 .04-.01-.1 0-.15zm-1.95 7.23a5.32 5.32 0 0 0-.61 1.43 5.32 5.32 0 0 1 .61-1.43l.29-.49c-.09.16-.19.32-.29.48zM52.18 35a.54.54 0 0 1 0-.11 1 1 0 0 0 0 .1l.35.31zm-2.75-1.93h-.06zm.11.06l-.09-.05zm.65 1.59zm7.64 6.65l.07.09zm-7.65-6.02v.62c-.01-.2 0-.41 0-.62zm-.08-1.9l-.43-.25zm-.44-.25l-.12-.07zm5.58 4.96l.06.07-.06-.07zm-2.71-2.81l.78.74zm5.16 1.52h.15zm-.76.98zm.95-.94L58 37zm.3.25zm.29.84zm0 .53zm-1.3-1.33s.01-.01 0 0zm.38-.31h.15zM54 36.83l-.37-.38zm3.69-4.3v1.84L57 37.6l.7-3.23v-1.84zm-3 5.01l-.19-.21zm3.71.07a.24.24 0 0 1 0 .08.24.24 0 0 0 0-.08zm-1.51.62s.01-.02 0 0zm.53-1.23l.09-.05zm-.15.08a.52.52 0 0 1 .11-.1.52.52 0 0 0-.11.1zm1.15 1.7a.66.66 0 0 1-.06.2 1.18 1.18 0 0 0 .07-.2zm-24.16-1.16l.09-.14zM58 37a.52.52 0 0 1 .11.1.52.52 0 0 0-.11-.1zm-23.18-.2a.21.21 0 0 0 0-.06.21.21 0 0 1 0 .06zm-1.42 2.4a2.14 2.14 0 0 0-.1.22zm-.4 1.01zm3.1-4.92l.12-.11zm-.69.77l.12-.15zm22.99 1.55l-.71-3.23.71 3.23zm-12.31 2.45zm.18.03zm-12.44-1.74c0 .08-.08.16-.13.24.05-.08.09-.16.13-.24zM45.9 40zm-.17-.06zm-1.08-2.14zm.05-.17zm.06-.16zm1.02-.97zm12.46 2.72a.36.36 0 0 1-.07.1.36.36 0 0 0 .07-.1zM44.62 38zm.01.59s.01.01 0 0zm13.71.41l-.06.13z" fill="none"/><path d="M51.18 50l-.18-.21z" fill="#525353"/><path d="M51.63 50.47a3.82 3.82 0 0 1-.45-.45 3.82 3.82 0 0 0 .45.45z" fill="#aa9678"/><path d="M58.7 33.64a5 5 0 0 0-.51-.63l-.24-.25-.09-.08-.15-.14v1.85l.7 3.23v.07l.49.55h.51v-.15a14.06 14.06 0 0 0-.7-4.36z" fill="#bbbcbd"/><path d="M58.47 37.92a1.79 1.79 0 0 1 0 .23v.1a1.64 1.64 0 0 1 0 .23 1.57 1.57 0 0 1 0 .23l.49-.54-.49-.55a2 2 0 0 1 0 .3z" fill="#676a6a"/><path d="M58.47 38.55a2 2 0 0 0 0-.23v-.1a1.94 1.94 0 0 0 0-.24 1.55 1.55 0 0 0 0-.23.24.24 0 0 0 0-.08 1.47 1.47 0 0 0-.19-.4v-.05l-.07-.08A.43.43 0 0 0 58 37l-.1-.05a.45.45 0 0 0-.28 0l-.09.05a.43.43 0 0 0-.1.09l-.07.08v.05a1.47 1.47 0 0 0-.19.4v.29a2.45 2.45 0 0 0 0 .27c0 .75.36 1.37.8 1.37a.42.42 0 0 0 .21-.06l.08-.06.1-.11.07-.09v-.07l.06-.13v-.05a.66.66 0 0 0 .06-.2 1.12 1.12 0 0 0-.08-.23zm-.75-.5c-.16 0-.3-.23-.3-.51s.14-.51.3-.51.3.23.3.51-.13.51-.3.51z"/><path d="M57.72 37c-.16 0-.3.23-.3.51s.14.51.3.51.3-.23.3-.51-.13-.51-.3-.51z" fill="#fff"/><path d="M57 37.61a1.44 1.44 0 0 1 .18-.4v-.05l.06-.08.1-.1.1-.05a.48.48 0 0 1 .29 0L58 37a.52.52 0 0 1 .11.1l.06.08a1.59 1.59 0 0 1 .18.4l-.7-3.23L57 37.6z" fill="#909393"/><path d="M48.34 38.2v-.19a.57.57 0 0 0 0-.18.84.84 0 0 0 0-.17l-.06-.17s0-.1-.08-.16a1.89 1.89 0 0 0-.92-.8 1.39 1.39 0 0 0-.33-.1 1.47 1.47 0 0 0-.36 0 2 2 0 0 0-.35 0l-.33.1a2.11 2.11 0 0 0-.3.16 1.39 1.39 0 0 0-.27.21 2 2 0 0 0-.34.43 1 1 0 0 0-.07.15l-.06.14v.29c0 .05 0 0 0 0a1.7 1.7 0 0 0 0 .55 1.91 1.91 0 0 0 .1.34m0 0a1.88 1.88 0 0 0 .82.92l.15.08.15.06h.29a2.07 2.07 0 0 0 1.24-.3 1.87 1.87 0 0 0 .83-1.55zm1.5-.8a.71.71 0 1 1 .7-.7.69.69 0 0 1-.7.69z"/><path d="M46.47 36.58a.71.71 0 1 0 .7.7.7.7 0 0 0-.7-.7z" fill="#fff"/><path d="M45.19 36.88l1.29-3.93V32a11 11 0 0 0-2.21-.22h-.86a11.06 11.06 0 0 0-3.74 1 11.85 11.85 0 0 0-2.79 1.79q-.35.28-.66.6l-.12.12c-.2.2-.39.41-.57.62l-.12.15c-.19.22-.37.44-.55.68v.06c-.16.22-.32.45-.47.68l-.09.14c-.12.19-.24.39-.35.59h5.86z" fill="#bbbcbd"/><path d="M50.13 36.43v-2.96l-.43-.24-.12-.07-.09-.05h-.06a8.84 8.84 0 0 0-.83-.38 13.69 13.69 0 0 0-2.12-.73v.93l1.28 3.94a2 2 0 0 1 .34.43s0 .11.08.16l.06.17a1.21 1.21 0 0 1 0 .18.63.63 0 0 1 0 .19 1.23 1.23 0 0 1 0 .19h1.57a16.69 16.69 0 0 0 .22-1.73z" fill="#e2dddb"/><path d="M48.35 43.83l1-1c.19-.2.38-.39.55-.58a12.13 12.13 0 0 0 2.84-4.45.66.66 0 0 0 0-.15v-.38a15.64 15.64 0 0 0-.56-2.27l-.18-.09c-.14-.13-.29-.27-.45-.4a11.46 11.46 0 0 0-1.44-1v2.96a16.71 16.71 0 0 1-.23 1.73l-.18.87a28.14 28.14 0 0 1-1.8 4.41c-.17.39-.33.78-.47 1.18l-.05.11.52-.52z" fill="#fbb040"/><path d="M45.19 36.87l.27-.21a1.82 1.82 0 0 1 .31-.16l.32-.1a2.12 2.12 0 0 1 .71 0l.34.1a1.84 1.84 0 0 1 .57.38l-1.28-3.94z" fill="#909393"/><path d="M44.74 38.94a2.19 2.19 0 0 1-.1-.34 1.7 1.7 0 0 1 0-.55v-.14c0-.04 0 0 0 0v-.15l.06-.15a1 1 0 0 1 .07-.15 1.79 1.79 0 0 1 .34-.43l-5.41 1.33 5.36 1.31a2 2 0 0 1-.38-.58z" fill="#676a6a"/><path d="M56.92 37.92a.17.17 0 0 1 0-.07 1.74 1.74 0 0 1 0-.22l.7-3.23v-1.87a2.86 2.86 0 0 0-1.84-.74 3.17 3.17 0 0 0-2.13 1 8.14 8.14 0 0 0-1.49 2.14.54.54 0 0 0 0 .11l.35.31.78.74.35.36.37.38c.16.16.31.33.47.5l.19.21.55.62.06.07h1.59a1.24 1.24 0 0 1 .05-.31zm-4.74-2.87z" fill="#e2dddb"/><path d="M33 40.25c.11-.27.22-.53.34-.79a2.14 2.14 0 0 1 .1-.22c.09-.2.2-.41.3-.61s.09-.16.13-.24a1 1 0 0 0 .08-.14c.11-.2.23-.4.35-.59l.09-.13c.15-.24.31-.47.47-.69v-.06c.17-.24.36-.46.54-.68l.12-.15c.19-.21.38-.42.58-.62l.12-.11c.21-.21.43-.42.66-.61a7.11 7.11 0 0 1 13.2-1.2.41.41 0 0 0 0 .09 13.6 13.6 0 0 1 1.44 1.05l.45.39.14.14v-.1c.46-2.87 1.72-4.93 3.21-4.93 1.13 0 2.12 1.17 2.74 3a7.79 7.79 0 0 1 .51.63v.08-.09a13.91 13.91 0 0 0-26.39 8.78c.09-.41.19-.82.32-1.22s.33-.67.5-.98z" fill="#525353"/><path d="M58.91 38.23l-.48.54a1.72 1.72 0 0 1-.07.21v.05l-.06.12v.07l-.07.09a.52.52 0 0 1-.1.11l-.08.06a.54.54 0 0 1-.22.05c-.44 0-.79-.61-.79-1.36H55.3c.3.34.59.69.88 1 .28.34.55.69.83 1l.77 1a.36.36 0 0 0 .07.1l.8 1.06a13.73 13.73 0 0 0 .73-4.31h-.52z" fill="#fff"/><path d="M43.41 31.81h.86a11 11 0 0 1 2.21.22 15.36 15.36 0 0 1 2.07.65c.28.12.55.25.82.39h.06l.09.05.12.07.43.25a.41.41 0 0 0-.05-.09 7.43 7.43 0 0 0-2.66-2.9 7.09 7.09 0 0 0-10.54 4.11 11.85 11.85 0 0 1 2.79-1.79 11.06 11.06 0 0 1 3.8-.96zm10.31.98a3.17 3.17 0 0 1 2.13-1 2.84 2.84 0 0 1 1.84.74l.16.14.09.08.24.25c-.61-1.8-1.61-3-2.73-3-1.5 0-2.76 2.07-3.22 4.94a8 8 0 0 1 1.49-2.15z"/><path d="M40.54 51.05l.39.14a13.93 13.93 0 0 0 9.79-.19l.25-.11a3.52 3.52 0 0 0 .4-.18l.36-.17h-.08a6.11 6.11 0 0 1-1.48 0c-2.86-.42-3.5-1.79-3.41-3.23a8.3 8.3 0 0 1-.62-.41 18.54 18.54 0 0 1-3.51-3.29 18.58 18.58 0 0 0 4.24 2.29l.16.06c.11-.41.25-.8.38-1.15v-.11c.14-.4.3-.79.47-1.17a27.68 27.68 0 0 0 1.8-4.42l.18-.87h-1.52a1.87 1.87 0 0 1-.83 1.55 3.07 3.07 0 0 1-.31.17 1.85 1.85 0 0 1-.93.13h-.29l-.15-.06-.15-.07a2.46 2.46 0 0 1-.44-.34l-5.36-1.31h-5.97l-.08.13c0 .09-.09.17-.13.25s-.21.4-.3.61a1.47 1.47 0 0 0-.1.22c-.12.26-.23.52-.34.79-.12.3-.22.61-.32.93s-.23.81-.32 1.22a14 14 0 0 0 5.06 6.92c.06 0 .14.09.21.15.39.27.8.53 1.23.77a14.3 14.3 0 0 0 1.72.75z" fill="#fff"/><path d="M50.15 46.73a3.53 3.53 0 0 0 0 1.17 3.12 3.12 0 0 0 .09.44 3.89 3.89 0 0 0 .22.6 3.53 3.53 0 0 0 .28.5l.09.15.15.2.18.23a4.89 4.89 0 0 0 .46.45h.09A9.32 9.32 0 0 0 53.6 50c.31-.11.62-.23.94-.38l.28-.13a24.38 24.38 0 0 0 5.85-4.26 17.54 17.54 0 0 1-10.52 1.5z" fill="#9f2255"/><path d="M57.83 41.37l-.77-1-.83-1-.88-1-.06-.07-.55-.62-.19-.21c-.16-.17-.31-.34-.47-.5l-.37-.38-.35-.36-.78-.74-.41-.49a15.57 15.57 0 0 1 .69 2.2l.09.57c.35 2.61-.48 4.31-1.81 6.55l-.29.49a5.08 5.08 0 0 0-.61 1.44 3.43 3.43 0 0 0-.09.44 17.44 17.44 0 0 0 10.51-1.47s-.78-1.15-2-2.74l-.8-1.06z" fill="#e2056f"/><path d="M51.63 50.47a3.82 3.82 0 0 1-.45-.45l-.18-.23c-.05-.06-.09-.13-.14-.2l-.1-.14a4.11 4.11 0 0 1-.27-.51 4.19 4.19 0 0 1-.22-.59 3.93 3.93 0 0 1-.1-.44 3.83 3.83 0 0 1 0-1.17 3.12 3.12 0 0 1 .09-.44 5.22 5.22 0 0 1 .6-1.44c.1-.16.2-.32.29-.48 1.33-2.24 2.17-3.94 1.82-6.55 0-.19-.06-.38-.1-.57 0 .13 0 .25-.06.35v.16a12.1 12.1 0 0 1-2.84 4.44c-.17.2-.36.39-.55.59s-.65.67-1 1l-.43.43c-.14.13-.31.31-.51.52-.13.35-.27.74-.38 1.15l-.16-.06a18.36 18.36 0 0 1-4.24-2.3 18.39 18.39 0 0 0 3.51 3.3 6.81 6.81 0 0 0 .63.41c-.09 1.44.54 2.82 3.4 3.23a6.19 6.19 0 0 0 1.49 0z"/></svg>