<svg xmlns="http://www.w3.org/2000/svg" xmlns:xlink="http://www.w3.org/1999/xlink" width="91" height="91"><defs><linearGradient id="a" x1="14.74" y1="53.5" x2="14.74" y2="36.68" gradientUnits="userSpaceOnUse"><stop offset="0" stop-color="#005496"/><stop offset=".7" stop-color="#002f6f"/></linearGradient><linearGradient id="d" x1="28.69" y1="53.72" x2="28.69" y2="40.39" xlink:href="#a"/><linearGradient id="e" x1="42.32" y1="53.5" x2="42.32" y2="40.64" xlink:href="#a"/><linearGradient id="f" x1="51.05" y1="53.5" x2="51.05" y2="35.6" xlink:href="#a"/><linearGradient id="g" x1="61.38" y1="53.5" x2="61.38" y2="40.64" xlink:href="#a"/><linearGradient id="h" x1="72.93" y1="53.72" x2="72.93" y2="40.39" xlink:href="#a"/><linearGradient id="b" x1="11.71" y1="37.99" x2="11.71" y2="29.87" gradientUnits="userSpaceOnUse"><stop offset="0" stop-color="#0f7d31"/><stop offset="1" stop-color="#3ab449"/></linearGradient><linearGradient id="i" x1="10.88" y1="39.54" x2="5.5" y2="39.54" xlink:href="#b"/><linearGradient id="j" x1="10.11" y1="43.61" x2="6.33" y2="43.61" xlink:href="#b"/><linearGradient id="c" x1="53.24" y1="35.36" x2="53.24" y2="29.39" gradientUnits="userSpaceOnUse"><stop offset="0" stop-color="#0f7d31"/><stop offset=".7" stop-color="#3ab449"/></linearGradient><linearGradient id="k" x1="50.84" y1="36.74" x2="48.26" y2="32.27" xlink:href="#c"/><linearGradient id="l" x1="50.79" y1="38.37" x2="46.84" y2="38.37" xlink:href="#c"/><linearGradient id="m" x1="78.49" y1="41.31" x2="78.49" y2="32.66" xlink:href="#c"/><linearGradient id="n" x1="78.85" y1="41.75" x2="85.5" y2="41.75" xlink:href="#c"/><linearGradient id="o" x1="78.95" y1="45.04" x2="83.18" y2="47.48" xlink:href="#c"/></defs><path d="M13 47l-1.32 6.5H8.17l3.55-16.82h4.13A6.19 6.19 0 0 1 20 37.85a4.25 4.25 0 0 1 1.36 3.44 5.11 5.11 0 0 1-.95 3.12 5.59 5.59 0 0 1-2.75 1.94l3 7.15h-3.87L14.41 47zm.61-2.9h.9a3.73 3.73 0 0 0 2.35-.65 2.39 2.39 0 0 0 .84-2 1.77 1.77 0 0 0-.55-1.42 2.53 2.53 0 0 0-1.71-.46h-.86z" fill="url(#a)"/><path d="M28 53.72a5.14 5.14 0 0 1-3.75-1.3 4.85 4.85 0 0 1-1.33-3.66 9.73 9.73 0 0 1 .95-4.34 7.09 7.09 0 0 1 2.56-3 6.73 6.73 0 0 1 3.67-1 4.9 4.9 0 0 1 3.18.94 3.1 3.1 0 0 1 1.13 2.57 3.69 3.69 0 0 1-1.92 3.32A10.58 10.58 0 0 1 27 48.39h-.59v.47a2.27 2.27 0 0 0 .59 1.65 2.29 2.29 0 0 0 1.7.6 6.53 6.53 0 0 0 1.82-.22 10.83 10.83 0 0 0 2-.77v2.62a9.84 9.84 0 0 1-4.52.98zm1.89-10.83a2.65 2.65 0 0 0-1.91.92 4.51 4.51 0 0 0-1.18 2.24h.52a5.76 5.76 0 0 0 2.78-.55 1.7 1.7 0 0 0 1-1.52c0-.72-.4-1.09-1.2-1.09z" fill="url(#d)"/><path d="M40.26 50a21.85 21.85 0 0 1 1.05-2.56l3.42-6.83h3.71L41.5 53.5h-3.72L36.2 40.64h3.39l.52 6.74c0 1 .08 1.91.08 2.66z" fill="url(#e)"/><path d="M51 53.5h-3.49l2.73-12.86h3.46zm-.19-15.88a1.94 1.94 0 0 1 .55-1.51 2.17 2.17 0 0 1 1.54-.51 2 2 0 0 1 1.28.35 1.23 1.23 0 0 1 .44 1 2.16 2.16 0 0 1-.51 1.49 2 2 0 0 1-1.56.57c-1.16 0-1.74-.47-1.74-1.42z" fill="url(#f)"/><path d="M59.31 50a23.36 23.36 0 0 1 1.06-2.56l3.42-6.83h3.71L60.56 53.5h-3.72l-1.59-12.86h3.4l.52 6.74c0 1 .07 1.91.07 2.66z" fill="url(#g)"/><path d="M72.27 53.72a5.14 5.14 0 0 1-3.75-1.3 4.86 4.86 0 0 1-1.34-3.66 9.86 9.86 0 0 1 .95-4.34 7.11 7.11 0 0 1 2.57-3 6.79 6.79 0 0 1 3.67-1 4.9 4.9 0 0 1 3.18.94 3.17 3.17 0 0 1 1.13 2.57 3.68 3.68 0 0 1-1.92 3.32 10.6 10.6 0 0 1-5.48 1.17h-.59v.47a2.27 2.27 0 0 0 .59 1.65 2.29 2.29 0 0 0 1.7.6 7 7 0 0 0 1.82-.21 12 12 0 0 0 2-.78v2.62a10 10 0 0 1-4.53.95zm1.88-10.83a2.68 2.68 0 0 0-1.91.92 4.42 4.42 0 0 0-1.17 2.24h.52a5.71 5.71 0 0 0 2.77-.55 1.7 1.7 0 0 0 1-1.52c0-.72-.4-1.09-1.21-1.09z" fill="url(#h)"/><path d="M11.41 57.76a2.62 2.62 0 0 1-.26 1.2 1.87 1.87 0 0 1-.72.83 1.82 1.82 0 0 1-1 .29 1.52 1.52 0 0 1-1.09-.37 1.32 1.32 0 0 1-.4-1 2.78 2.78 0 0 1 .25-1.2 2 2 0 0 1 .72-.84 1.93 1.93 0 0 1 1.06-.31 1.5 1.5 0 0 1 1.09.38 1.36 1.36 0 0 1 .35 1.02zm-.85 0a.77.77 0 0 0-.17-.55.63.63 0 0 0-.5-.2.82.82 0 0 0-.59.24 1.47 1.47 0 0 0-.41.63 2.25 2.25 0 0 0-.14.86.77.77 0 0 0 .17.55.69.69 0 0 0 .53.2.89.89 0 0 0 .58-.22 1.55 1.55 0 0 0 .4-.63 2.61 2.61 0 0 0 .13-.91zm3.14 2.33a1 1 0 0 1-1-.57q0 .3-.09.6l-.34 1.52h-.84l1.21-5.23h.66l-.07.61a1.59 1.59 0 0 1 1.22-.68 1 1 0 0 1 .8.34 1.39 1.39 0 0 1 .29.94 3.12 3.12 0 0 1-.25 1.24 2.19 2.19 0 0 1-.68.91 1.53 1.53 0 0 1-.91.32zm.48-3.09a.82.82 0 0 0-.57.26 1.81 1.81 0 0 0-.47.69 2.25 2.25 0 0 0-.18.89.69.69 0 0 0 .17.49.62.62 0 0 0 .47.18.84.84 0 0 0 .57-.26 1.74 1.74 0 0 0 .41-.69 2.51 2.51 0 0 0 .16-.9c0-.44-.19-.66-.56-.66zm3.46 3.09a1.58 1.58 0 0 1-1.1-.36 1.32 1.32 0 0 1-.39-1 2.64 2.64 0 0 1 .28-1.2 2.1 2.1 0 0 1 .75-.87 2 2 0 0 1 1.06-.3 1.48 1.48 0 0 1 .9.24.81.81 0 0 1 .32.67 1 1 0 0 1-.6.93 3.37 3.37 0 0 1-1.69.33H17v.2a.78.78 0 0 0 .2.57.81.81 0 0 0 .6.21 1.7 1.7 0 0 0 .51-.07 3 3 0 0 0 .6-.21v.61a3.33 3.33 0 0 1-.63.21 3.49 3.49 0 0 1-.64.04zm.55-3.16a1 1 0 0 0-.65.28 1.58 1.58 0 0 0-.43.75h.1a2.48 2.48 0 0 0 1.05-.18.54.54 0 0 0 .38-.49.31.31 0 0 0-.11-.26.52.52 0 0 0-.34-.1zM22.05 60l.52-2.2a3 3 0 0 0 .06-.43c0-.28-.15-.42-.46-.42a.88.88 0 0 0-.51.18 1.8 1.8 0 0 0-.45.54 2.86 2.86 0 0 0-.3.8L20.56 60h-.84l.84-3.62h.66l-.07.67a1.92 1.92 0 0 1 .61-.56 1.36 1.36 0 0 1 .68-.18 1 1 0 0 1 .74.25.9.9 0 0 1 .27.7 2.9 2.9 0 0 1-.09.59L22.9 60zm6.28-1.09a1 1 0 0 1-.42.87 1.91 1.91 0 0 1-1.17.31 2.68 2.68 0 0 1-1.15-.22v-.67a2.39 2.39 0 0 0 1.11.3 1.08 1.08 0 0 0 .56-.13.4.4 0 0 0 .1-.64 2.29 2.29 0 0 0-.51-.32 2 2 0 0 1-.63-.45.8.8 0 0 1-.18-.54.92.92 0 0 1 .38-.8 1.68 1.68 0 0 1 1-.28 2.6 2.6 0 0 1 1.23.27l-.27.58a2 2 0 0 0-.95-.25.7.7 0 0 0-.42.11.35.35 0 0 0 0 .56 2 2 0 0 0 .48.3 2.62 2.62 0 0 1 .53.33.89.89 0 0 1 .24.3.67.67 0 0 1 .07.37zm4.25-1.15a2.91 2.91 0 0 1-.26 1.2 2 2 0 0 1-.72.83 1.85 1.85 0 0 1-1.05.29 1.53 1.53 0 0 1-1.09-.37 1.35 1.35 0 0 1-.4-1 2.79 2.79 0 0 1 .26-1.2 2 2 0 0 1 .71-.84 1.94 1.94 0 0 1 1.07-.31 1.52 1.52 0 0 1 1.09.38 1.4 1.4 0 0 1 .39 1.02zm-.85 0a.78.78 0 0 0-.18-.55.63.63 0 0 0-.5-.2.82.82 0 0 0-.59.24 1.55 1.55 0 0 0-.4.63 2.47 2.47 0 0 0-.15.86.78.78 0 0 0 .18.55.68.68 0 0 0 .52.2.87.87 0 0 0 .58-.22 1.45 1.45 0 0 0 .4-.63 2.39 2.39 0 0 0 .14-.88zm2.88-1.36l-.46 2a4.62 4.62 0 0 0-.15.6c0 .29.15.44.46.44a.89.89 0 0 0 .51-.19 1.65 1.65 0 0 0 .45-.53 2.93 2.93 0 0 0 .3-.81l.36-1.54H37L36.12 60h-.66l.07-.67a1.92 1.92 0 0 1-.61.56 1.39 1.39 0 0 1-.69.18 1 1 0 0 1-.74-.25.94.94 0 0 1-.26-.71 1.92 1.92 0 0 1 0-.41l.08-.4.44-1.91zm5.25-.06a1.58 1.58 0 0 1 .38 0l-.18.72a1.49 1.49 0 0 0-.36-.05 1.1 1.1 0 0 0-.8.37 2 2 0 0 0-.49 1L38 60h-.84l.84-3.6h.66l-.08.67a2.25 2.25 0 0 1 .59-.56 1.27 1.27 0 0 1 .69-.17zm1.84 3.75a1.58 1.58 0 0 1-1.09-.34 1.32 1.32 0 0 1-.38-1 2.78 2.78 0 0 1 .26-1.23 2 2 0 0 1 .73-.86 2 2 0 0 1 1.09-.32 2.77 2.77 0 0 1 1.06.2l-.25.6a2 2 0 0 0-.79-.17 1 1 0 0 0-.89.5 2.1 2.1 0 0 0-.37 1.24.69.69 0 0 0 .62.76h.13a1.69 1.69 0 0 0 .5-.08 4.28 4.28 0 0 0 .46-.17v.64a2.69 2.69 0 0 1-1.08.23zm3.3 0a1.56 1.56 0 0 1-1.09-.36 1.29 1.29 0 0 1-.4-1 2.64 2.64 0 0 1 .28-1.2 2.17 2.17 0 0 1 .75-.87 2 2 0 0 1 1.06-.3 1.45 1.45 0 0 1 .89.24.78.78 0 0 1 .32.67 1 1 0 0 1-.59.93 3.39 3.39 0 0 1-1.69.34h-.16v.2a.75.75 0 0 0 .19.57.86.86 0 0 0 .61.2 2.07 2.07 0 0 0 .5-.06 4.39 4.39 0 0 0 .61-.21v.6a3.88 3.88 0 0 1-.63.21 3.57 3.57 0 0 1-.65.04zm.55-3.16a1 1 0 0 0-.65.28 1.58 1.58 0 0 0-.43.75h.1a2.48 2.48 0 0 0 1.05-.18.55.55 0 0 0 .38-.49.31.31 0 0 0-.1-.29.52.52 0 0 0-.34-.1zm4.58 3.16a1 1 0 0 1-.8-.33 1.34 1.34 0 0 1-.3-.94 3.08 3.08 0 0 1 .25-1.23 2.21 2.21 0 0 1 .69-.91 1.52 1.52 0 0 1 1-.34 1.23 1.23 0 0 1 .59.15 1 1 0 0 1 .39.43l.22-.51h.64L52 60h-.65l.07-.58a1.61 1.61 0 0 1-1.29.67zm.3-.62a.88.88 0 0 0 .58-.25 2.13 2.13 0 0 0 .47-.68 2.29 2.29 0 0 0 .17-.93.67.67 0 0 0-.16-.47.57.57 0 0 0-.44-.17.77.77 0 0 0-.57.25 1.61 1.61 0 0 0-.43.69 2.46 2.46 0 0 0-.16.89.69.69 0 0 0 .14.5.51.51 0 0 0 .4.17zm4.63-3.13a1 1 0 0 1 .95.58 7.76 7.76 0 0 1 .13-.82l.28-1.16h.83L56.1 60h-.66l.07-.58a2.43 2.43 0 0 1-.61.5 1.48 1.48 0 0 1-.62.14 1 1 0 0 1-.8-.33 1.34 1.34 0 0 1-.29-.94 3 3 0 0 1 .25-1.25 2.21 2.21 0 0 1 .69-.91 1.53 1.53 0 0 1 .93-.29zm-.48 3.13a.86.86 0 0 0 .58-.27 1.86 1.86 0 0 0 .46-.7 2.36 2.36 0 0 0 .17-.87.68.68 0 0 0-.15-.48.6.6 0 0 0-.47-.18.86.86 0 0 0-.57.25 1.76 1.76 0 0 0-.42.69 2.5 2.5 0 0 0-.16.89c0 .45.18.67.56.67zm7.01-.56a1 1 0 0 1-.42.87 2 2 0 0 1-1.18.31 2.65 2.65 0 0 1-1.15-.22v-.67a2.39 2.39 0 0 0 1.11.3 1.08 1.08 0 0 0 .56-.13.4.4 0 0 0 .22-.36.37.37 0 0 0-.13-.28 2 2 0 0 0-.5-.32 2 2 0 0 1-.63-.45.87.87 0 0 1-.19-.54 1 1 0 0 1 .39-.8 1.68 1.68 0 0 1 1-.28 2.6 2.6 0 0 1 1.23.27l-.27.58a2 2 0 0 0-.95-.25.7.7 0 0 0-.42.11.35.35 0 0 0 0 .56 2 2 0 0 0 .48.3 2.62 2.62 0 0 1 .53.33.89.89 0 0 1 .24.3.78.78 0 0 1 .08.37zm2.21 1.18a1.58 1.58 0 0 1-1.1-.36 1.32 1.32 0 0 1-.39-1 2.64 2.64 0 0 1 .28-1.2 2.1 2.1 0 0 1 .75-.87 2 2 0 0 1 1.06-.3 1.46 1.46 0 0 1 .9.24.81.81 0 0 1 .32.67 1 1 0 0 1-.59.93 3.45 3.45 0 0 1-1.71.34h-.15v.19a.78.78 0 0 0 .2.57.81.81 0 0 0 .6.21 2.24 2.24 0 0 0 .52-.06l.6-.21v.6a3.69 3.69 0 0 1-.64.21 3.39 3.39 0 0 1-.65.04zm.55-3.16a1 1 0 0 0-.65.28 1.58 1.58 0 0 0-.43.75h.1a2.54 2.54 0 0 0 1.05-.18.55.55 0 0 0 .38-.49.32.32 0 0 0-.12-.26.52.52 0 0 0-.34-.1zm4.2-.59a1.72 1.72 0 0 1 .39 0l-.19.72a1.49 1.49 0 0 0-.36-.05 1.06 1.06 0 0 0-.8.37 2 2 0 0 0-.49 1L66.72 60h-.84l.84-3.63h.66l-.08.68a1.89 1.89 0 0 1 .59-.57 1.23 1.23 0 0 1 .66-.14zM69.4 60l-.46-3.62h.83l.19 2a8.3 8.3 0 0 1 .05 1c.07-.16.15-.34.25-.54a4.2 4.2 0 0 1 .24-.43l1.11-2h.89L70.38 60zm4.46.09a1.57 1.57 0 0 1-1.1-.36 1.29 1.29 0 0 1-.4-1 2.64 2.64 0 0 1 .28-1.2 2.25 2.25 0 0 1 .75-.87 2 2 0 0 1 1.06-.3 1.45 1.45 0 0 1 .89.24.76.76 0 0 1 .32.67 1 1 0 0 1-.59.93 3.39 3.39 0 0 1-1.69.34h-.16v.2a.76.76 0 0 0 .2.57.82.82 0 0 0 .6.2 2.22 2.22 0 0 0 .51-.06 3.86 3.86 0 0 0 .6-.21v.6a3.33 3.33 0 0 1-.63.21 3.47 3.47 0 0 1-.64.04zm.54-3.16a1 1 0 0 0-.65.28 1.58 1.58 0 0 0-.43.75h.11a2.54 2.54 0 0 0 1-.18.54.54 0 0 0 .37-.49.29.29 0 0 0-.11-.26.52.52 0 0 0-.34-.1zm4.21-.59a1.58 1.58 0 0 1 .38 0l-.17.72a1.57 1.57 0 0 0-.37-.05 1.1 1.1 0 0 0-.8.37 2 2 0 0 0-.49 1L76.78 60h-.84l.84-3.63h.66l-.08.68a2.13 2.13 0 0 1 .59-.57 1.27 1.27 0 0 1 .66-.14z" fill="#626463"/><path d="M11.15 33.34a10.45 10.45 0 0 1 1.37 2.88h1.52c0-3.55-2.42-2.81-3.87-6.33.41 2.48-2.5 5.32.85 8.12l.39-1.77H12a15.1 15.1 0 0 0-.87-2.87" fill="url(#b)"/><path d="M10.54 40.27l-.29 1.38c-3.34-.15-2.84-2.78-4.75-4.23 2.37 1.22 3.61-.37 5.38 1.18l-.24 1.27a6.37 6.37 0 0 0-2.69-1c1.16.37 1.44.98 2.59 1.4z" fill="url(#i)"/><path d="M9.87 43.57L9.6 45c-1.41.08-1-.53-3.27-.61 2.11-.63 1.69-2.07 3.78-2.07l-.15.89a5 5 0 0 0-1.49.72 4 4 0 0 1 1.4-.36z" fill="url(#j)"/><path d="M53.59 31.93c.24 1.32-.18 2.1-.1 3.29a1.23 1.23 0 0 1 .57.14c2.07-2.33-.26-3.57 0-6-.77 1.83-3.59 2.85-2.05 5.9a2.09 2.09 0 0 1 1-.13c-.01-1.13.51-1.82.58-3.2z" fill="url(#c)"/><path d="M51.48 35.48a1.13 1.13 0 0 0-.53.41 7.7 7.7 0 0 0-1.61-1.71c.69.89.83 1.47 1.45 2a1.34 1.34 0 0 0-.39.84c-2.89-1.1-1.5-2.82-2.32-4.62 2.04 1.88 2.81.91 3.4 3.08z" fill="url(#k)"/><path d="M50.47 38.21c-1.1 0-1.36-.18-2-.09 1.11.24.92.41 2.06.36a.67.67 0 0 0 .24.39c-1.9 1.12-2.07.05-3.95-1.13 2 .12 2.26-.85 3.54 0a1.07 1.07 0 0 0 .09.43" fill="url(#l)"/><path d="M80.79 37.68c0-2.48-.5-1.6-.51-5-1.34 3.47-4.09 2.79-4.09 6.1 0 .91.24 1.64.69 1.64 1.05-1.76.88-2.31 2.28-4.32-1.06 2.49-.53 2.68-1.87 4.48a3.13 3.13 0 0 1 1 .75c1.71-1.01 2.5-2.24 2.5-3.65z" fill="url(#m)"/><path d="M85.5 39.69c-1.1.69-3 .45-3.84.45a2.89 2.89 0 0 0-2.81 2 1 1 0 0 1 .12.23c2-.54 2.4-1.1 3.75-1.17-1.52.57-2.07 1.31-3.66 1.51a4.29 4.29 0 0 1 .14.81 2.32 2.32 0 0 0 1.34.3c3.11-.01 3.1-2.98 4.96-4.13z" fill="url(#n)"/><path d="M83.6 46.76c-2.18-.94-1.95-2.33-3.73-2.33-.65 0-.73.12-.75.59a15.71 15.71 0 0 1 2.3 1.09 15.21 15.21 0 0 1-2.42-.79 2.34 2.34 0 0 1-.39.79 2.34 2.34 0 0 0 1.85 1c.84.01 2.08-.52 3.14-.35z" fill="url(#o)"/></svg>