<svg xmlns="http://www.w3.org/2000/svg" width="91" height="91"><path fill="#37beff" fill-rule="evenodd" d="M78 59.23L45.5 40.46V20.42L78 39.19v20.04z"/><path fill="#404f54" fill-rule="evenodd" d="M13 59.23l32.5-18.77V20.42L13 39.19v20.04z"/><path d="M45.5 13A22.48 22.48 0 1 1 23 35.48 22.47 22.47 0 0 1 45.5 13" fill="#ccc" fill-rule="evenodd"/><path d="M45.5 13a22.48 22.48 0 1 1 0 45c-7.13-4.79-10.07-14.45-10.07-22.47S38.37 17.8 45.5 13" fill="#e5e5e5" fill-rule="evenodd"/><path fill="#37beff" fill-rule="evenodd" d="M78 39.19L45.5 57.97V78L78 59.23V39.19z"/><path fill="#404f54" fill-rule="evenodd" d="M13 39.19l32.5 18.78V78L13 59.23V39.19z"/></svg>