<svg xmlns="http://www.w3.org/2000/svg" width="91" height="91"><path d="M17.71 70.21a.9.9 0 0 0-.33-.73 3.7 3.7 0 0 0-.83-.51l-1.08-.48a5.42 5.42 0 0 1-1.08-.6 3.06 3.06 0 0 1-.83-.89 2.59 2.59 0 0 1-.33-1.36 3 3 0 0 1 .24-1.24 2.38 2.38 0 0 1 .68-.89 3.13 3.13 0 0 1 1-.52 5.17 5.17 0 0 1 1.36-.16 7.9 7.9 0 0 1 1.61.14 4.21 4.21 0 0 1 1.25.43l-.55 1.6a3.2 3.2 0 0 0-.93-.36 5.45 5.45 0 0 0-1.33-.17 1.73 1.73 0 0 0-1 .27.87.87 0 0 0-.36.72.9.9 0 0 0 .33.7 4 4 0 0 0 .83.52c.33.16.7.32 1.09.49a5.76 5.76 0 0 1 1.08.61 3.12 3.12 0 0 1 .82.88 2.45 2.45 0 0 1 .29 1.34 3.28 3.28 0 0 1-.26 1.35 2.63 2.63 0 0 1-.73 1 2.9 2.9 0 0 1-1.14.56 5.57 5.57 0 0 1-1.46.19 7.66 7.66 0 0 1-1.85-.2 5.25 5.25 0 0 1-1.2-.43l.61-1.65.39.18c.19.07.37.13.56.18s.43.1.65.14a3.35 3.35 0 0 0 .71 0 2.49 2.49 0 0 0 1.31-.28 1 1 0 0 0 .48-.83zm2.76-6.36a.88.88 0 0 1 .3-.69 1.16 1.16 0 0 1 .83-.29 1.26 1.26 0 0 1 .86.29.89.89 0 0 1 .34.69.83.83 0 0 1-.34.68 1.27 1.27 0 0 1-.86.28 1.15 1.15 0 0 1-.83-.28.85.85 0 0 1-.3-.68zm.26 2h1.83v7h-1.83zm5.08 4.64a1.57 1.57 0 0 0 .13.71.44.44 0 0 0 .41.23 1.84 1.84 0 0 0 .33 0 2.07 2.07 0 0 0 .4-.13l.19 1.44a3.26 3.26 0 0 1-.69.22 3.8 3.8 0 0 1-.95.11 1.78 1.78 0 0 1-1.22-.37 1.58 1.58 0 0 1-.41-1.26V63h1.82zm4.45-.97l.23 1.08h.08l.19-1.11L32 65.84h2l-3 7.09h-1.12l-3.05-7.09H29zm9.8 2.73a3.67 3.67 0 0 1-1.14.56 5 5 0 0 1-1.54.24 3 3 0 0 1-2.48-1 4.36 4.36 0 0 1-.79-2.72 3.9 3.9 0 0 1 .89-2.77 3.28 3.28 0 0 1 2.48-.92 3.94 3.94 0 0 1 1 .14 2.36 2.36 0 0 1 .9.47 2.1 2.1 0 0 1 .63.87 3.16 3.16 0 0 1 .24 1.36v.63a6.7 6.7 0 0 1-.11.7H36a2.06 2.06 0 0 0 .45 1.33 1.73 1.73 0 0 0 1.34.45 2.79 2.79 0 0 0 1-.17 3.24 3.24 0 0 0 .69-.36zm-2.61-5.16a1.24 1.24 0 0 0-1.05.44 2.13 2.13 0 0 0-.4 1.14h2.6a1.88 1.88 0 0 0-.23-1.16 1 1 0 0 0-.92-.42zm7.9.46a2.42 2.42 0 0 0-.79-.16 1.26 1.26 0 0 0-.82.26 1.22 1.22 0 0 0-.44.67v4.53h-1.83v-7h1.42l.21.93h.06a1.86 1.86 0 0 1 .64-.8 1.64 1.64 0 0 1 1-.28 2.39 2.39 0 0 1 .83.15zm5.85 2.8a1.36 1.36 0 0 0-.35-1 3.62 3.62 0 0 0-.88-.66 11.87 11.87 0 0 0-1.14-.54 5.77 5.77 0 0 1-1.15-.61 3.17 3.17 0 0 1-.87-.88 2.34 2.34 0 0 1-.35-1.34 2.25 2.25 0 0 1 .79-1.82 3.42 3.42 0 0 1 2.27-.67 9.11 9.11 0 0 1 1.56.12 4.28 4.28 0 0 1 1.09.33l-.35 1a4.36 4.36 0 0 0-1-.29 6 6 0 0 0-1.41-.14 2 2 0 0 0-1.39.41 1.3 1.3 0 0 0-.15 1.84 3.52 3.52 0 0 0 .88.65q.52.29 1.14.57a6.44 6.44 0 0 1 1.14.65A3.24 3.24 0 0 1 52 69a2.17 2.17 0 0 1 .35 1.29 2.79 2.79 0 0 1-.22 1.14 2.42 2.42 0 0 1-.66.86 3.18 3.18 0 0 1-1 .56A4.78 4.78 0 0 1 49 73a7.92 7.92 0 0 1-1.75-.16 7 7 0 0 1-1.25-.36l.59-1a4.51 4.51 0 0 0 1 .35A5.23 5.23 0 0 0 49 72a4.28 4.28 0 0 0 .87-.09 1.82 1.82 0 0 0 .7-.3 1.64 1.64 0 0 0 .47-.51 1.51 1.51 0 0 0 .16-.75zm1.52-4.51h1.1v-1.4l1.12-.32v1.72h1.91v1h-1.91v3.86a2 2 0 0 0 .19 1 .65.65 0 0 0 .61.3 2.15 2.15 0 0 0 .62-.08l.56-.19.25.85a4 4 0 0 1-.82.3 4.51 4.51 0 0 1-1 .11 1.39 1.39 0 0 1-1.21-.49 2.86 2.86 0 0 1-.35-1.62v-4.1h-1.1zm8.97 1.07a3 3 0 0 0-.8-.14 1.36 1.36 0 0 0-1 .33 1.44 1.44 0 0 0-.44.84v4.91h-1.07v-7h.77l.21.85h.06a2 2 0 0 1 .64-.73 1.52 1.52 0 0 1 .94-.27 3.19 3.19 0 0 1 .91.14zm.96-3.2a.82.82 0 0 1 .22-.56.76.76 0 0 1 .55-.23.82.82 0 0 1 .58.23.76.76 0 0 1 .24.56.65.65 0 0 1-.24.53.82.82 0 0 1-.58.21.76.76 0 0 1-.55-.21.75.75 0 0 1-.22-.53zm.24 2.13H64v7h-1.11zm2.64 0h.77l.22.84a2.21 2.21 0 0 1 .83-.75 2.54 2.54 0 0 1 1.18-.26 2.58 2.58 0 0 1 2.09.83 4.24 4.24 0 0 1 .69 2.71 5.13 5.13 0 0 1-.24 1.6 3.43 3.43 0 0 1-.65 1.2 2.78 2.78 0 0 1-1 .75 3.2 3.2 0 0 1-1.33.27 4.53 4.53 0 0 1-.82-.06 3.83 3.83 0 0 1-.65-.22v2.92h-1.09zm2.84.81a1.64 1.64 0 0 0-1.13.37 2.05 2.05 0 0 0-.58 1.13v3.49a1.8 1.8 0 0 0 .58.31 3 3 0 0 0 .85.1 1.88 1.88 0 0 0 1.54-.72 3.38 3.38 0 0 0 .57-2.13 5.26 5.26 0 0 0-.1-1 2.07 2.07 0 0 0-.32-.8 1.47 1.47 0 0 0-.56-.52 1.76 1.76 0 0 0-.85-.18zm9.4 5.64a3.11 3.11 0 0 1-1.06.53 4.74 4.74 0 0 1-1.35.2 3.47 3.47 0 0 1-1.36-.26 2.54 2.54 0 0 1-1-.76 3.37 3.37 0 0 1-.56-1.16 5.6 5.6 0 0 1-.18-1.52 4.06 4.06 0 0 1 .8-2.73 2.81 2.81 0 0 1 2.28-.94 4.34 4.34 0 0 1 1 .1A2 2 0 0 1 77.77 67a3.43 3.43 0 0 1 .23 1.42 6.9 6.9 0 0 1-.08 1h-4.5a4.53 4.53 0 0 0 .13 1.1 2.1 2.1 0 0 0 .39.81 1.64 1.64 0 0 0 .69.5 2.67 2.67 0 0 0 1.05.18 2.8 2.8 0 0 0 .95-.17 2 2 0 0 0 .72-.39zm-2.41-5.64a2 2 0 0 0-1.33.43 2.15 2.15 0 0 0-.59 1.49h3.48a2.19 2.19 0 0 0-.4-1.5 1.51 1.51 0 0 0-1.16-.42z" fill="#8a9e97"/><path d="M41.73 42.43a7 7 0 0 0 1.81-9.69l-5.75 3.94a3.49 3.49 0 0 1-3.94-5.75l5.25-3.6L42.47 25a7 7 0 0 0 1.82-9.69l-5.75 3.93-8.62 5.91a10.46 10.46 0 0 0 11.8 17.28zm7.56-13.63a7 7 0 0 0-1.82 9.69l5.75-3.94a3.49 3.49 0 1 1 4.18 5.59l-.24.16-5.25 3.6-3.38 2.31a7 7 0 0 0-1.81 9.69l5.76-3.9 8.63-5.9a10.47 10.47 0 0 0-11.24-17.7l-.58.4z" fill="#005b94"/></svg>