<svg xmlns="http://www.w3.org/2000/svg" width="91" height="91"><path d="M77.62 74.25a.4.4 0 0 1 .38.38.38.38 0 0 1-.76 0 .34.34 0 0 1 .38-.38zm0 0a.33.33 0 0 0-.31.33.31.31 0 1 0 .61 0 .31.31 0 0 0-.3-.28zm-.07.56h-.08v-.43h.26a.14.14 0 0 1 0 .1.1.1 0 0 1-.08.1s.08 0 .08.11a.12.12 0 0 0 0 .1h-.07v-.1a.09.09 0 0 0-.1-.08v.18zm0-.23c.05 0 .1 0 .1-.07s0-.08-.1-.08zm-8.16.42H67.7v-5.68h2.58l2 3.57 2.07-3.57H77V75h-1.7v-4l-2.44 4h-1.14l-2.33-4zm-4.78-5.68a3 3 0 0 1 1.85.4 1.83 1.83 0 0 1 .5 1.47 2.1 2.1 0 0 1-.23 1.12 1.15 1.15 0 0 1-.73.48 1.22 1.22 0 0 1 .68.38 1 1 0 0 1 .23.7V75h-1.74v-.86a.56.56 0 0 0-.16-.46 1.25 1.25 0 0 0-.63-.12h-2.6V75H60v-5.68zm-.08 1.41h-2.79v1.4h2.79A.6.6 0 0 0 65 72a.87.87 0 0 0 .16-.59.68.68 0 0 0-.16-.48.58.58 0 0 0-.47-.2zm-6.96.64v-.05a.51.51 0 0 0-.23-.48 1.28 1.28 0 0 0-.7-.15h-1.4a1.85 1.85 0 0 0-1.16.23 1.16 1.16 0 0 0-.26.91v.78a1.07 1.07 0 0 0 .28.84 1.9 1.9 0 0 0 1.12.23h1a2.16 2.16 0 0 0 1.09-.18.69.69 0 0 0 .25-.63v-.06h1.77v.43a3.2 3.2 0 0 1-.13.92 1.45 1.45 0 0 1-.43.58 1.73 1.73 0 0 1-.76.3 7.83 7.83 0 0 1-1.37.1h-2a5.27 5.27 0 0 1-1.31-.1 2 2 0 0 1-.74-.33 1.48 1.48 0 0 1-.5-.68A2.91 2.91 0 0 1 52 73v-1.53a2.17 2.17 0 0 1 .58-1.72 3.33 3.33 0 0 1 2.12-.48h2a9.32 9.32 0 0 1 1.4.07 1.89 1.89 0 0 1 .71.28 1.32 1.32 0 0 1 .4.56 3 3 0 0 1 .13.89v.32h-1.77z" fill="#a6a8ab"/><path d="M49 69.32a3 3 0 0 1 1.85.4 1.83 1.83 0 0 1 .48 1.47 2.2 2.2 0 0 1-.23 1.12 1.19 1.19 0 0 1-.73.48 1.22 1.22 0 0 1 .68.38 1.05 1.05 0 0 1 .23.7V75h-1.71v-.86a.56.56 0 0 0-.15-.46 1.17 1.17 0 0 0-.63-.12h-2.61V75h-1.74v-5.68zm0 1.41h-2.82v1.4H49a.63.63 0 0 0 .48-.15.9.9 0 0 0 .12-.59.67.67 0 0 0-.15-.48.49.49 0 0 0-.45-.18zM37.73 75h-1.9L39 69.32h2.2l3 5.72h-1.89l-.55-1h-3.5zm1.21-2.33h2.2l-1.11-2zM34 71.37a.61.61 0 0 0-.23-.56 2.29 2.29 0 0 0-1.06-.15h-1a2 2 0 0 0-1.14.2 1.2 1.2 0 0 0-.25.91v.81a1.06 1.06 0 0 0 .28.84 1.9 1.9 0 0 0 1.11.23h1a3 3 0 0 0 1-.13.51.51 0 0 0 .28-.48.4.4 0 0 0 0-.15H32V71.7h3.87v1.87a1.18 1.18 0 0 1-.6 1.14 4.54 4.54 0 0 1-2.08.33h-2a6 6 0 0 1-1.32-.1 1.88 1.88 0 0 1-.7-.33 1.53 1.53 0 0 1-.51-.69 2.85 2.85 0 0 1-.15-1v-1.58a2.2 2.2 0 0 1 .58-1.72 3.32 3.32 0 0 1 2.1-.48h2a9.38 9.38 0 0 1 1.4.07 1.64 1.64 0 0 1 .7.28 1.26 1.26 0 0 1 .41.56 3 3 0 0 1 .13.89v.33H34zm-13.26-2.05h1.75v3.39a1 1 0 0 0 .25.79 2.28 2.28 0 0 0 1.14.2h1a1.81 1.81 0 0 0 1-.2 1 1 0 0 0 .26-.76v-3.42h1.74v3.92a1.7 1.7 0 0 1-.55 1.45 3.25 3.25 0 0 1-1.9.43h-1.98a3.92 3.92 0 0 1-2.15-.41 1.61 1.61 0 0 1-.59-1.46v-3.93zM13 73.12h1.72v.1c0 .23.06.38.16.43a1.17 1.17 0 0 0 .65.13h2.21a.73.73 0 0 0 .45-.1.44.44 0 0 0 .13-.36.45.45 0 0 0-.15-.38 1.39 1.39 0 0 0-.69-.15l-2.73-.05a2.2 2.2 0 0 1-1.39-.38A1.8 1.8 0 0 1 13 71a2.47 2.47 0 0 1 .1-.81 1.89 1.89 0 0 1 .31-.53 1.35 1.35 0 0 1 .65-.33 6 6 0 0 1 1.32-.1h2.66a2.25 2.25 0 0 1 1.41.36 1.48 1.48 0 0 1 .44 1.16v.13a.75.75 0 0 1 0 .2h-1.68a.61.61 0 0 0-.15-.43.56.56 0 0 0-.44-.15h-2a1.26 1.26 0 0 0-.66.1.4.4 0 0 0-.15.35.42.42 0 0 0 .16.36 1.12 1.12 0 0 0 .53.15h2.88a2.12 2.12 0 0 1 1.4.43 2 2 0 0 1 .4 1.42 2.14 2.14 0 0 1-.15.91 1.21 1.21 0 0 1-.51.56 1.3 1.3 0 0 1-.63.2 6.24 6.24 0 0 1-1.14.07H15.4a3.67 3.67 0 0 1-1.92-.33 1.27 1.27 0 0 1-.48-1.14v-.46z" fill="#262624"/><path d="M47.35 32.14a5.47 5.47 0 0 1-3.7 0L25.3 24.88c-1-.42-1-1 0-1.42l18.35-7.25a5.47 5.47 0 0 1 3.7 0l18.34 7.11c1 .43 1 1 0 1.42z" fill="#e61718"/><path d="M46.49 61.87a1.26 1.26 0 0 0 1.85 1.28l18.35-7.26a3.15 3.15 0 0 0 1.85-2.7V27.73a1.26 1.26 0 0 0-1.85-1.28L48.34 33.7a3.16 3.16 0 0 0-1.84 2.7z" fill="#a7a9ac"/><path d="M44.5 61.87a1.26 1.26 0 0 1-1.85 1.28l-18.34-7.26a3.13 3.13 0 0 1-1.85-2.7V27.73a1.26 1.26 0 0 1 1.85-1.28l18.34 7.25a3.15 3.15 0 0 1 1.85 2.7z" fill="#343433"/></svg>