<svg xmlns="http://www.w3.org/2000/svg" width="91" height="91"><path d="M35 38.3l13.31-2.41H86a1.65 1.65 0 0 1 1.65 1.65v15.69A1.65 1.65 0 0 1 86 54.88H47.44l-11.4-2c-.91 0-2.43 1.22-2.43.31V37.54c0-.91.46.76 1.39.76z" fill="#5c576b"/><path d="M48.27 35.89H4.82a1.41 1.41 0 0 0-1.43 1.39v16.17a1.43 1.43 0 0 0 1.43 1.43h42.63a14.23 14.23 0 0 1 .86-19z" fill="#eb6657" fill-rule="evenodd"/><path d="M13.13 44.3a.39.39 0 0 1-.08.1h-.26l-.2-.11a1 1 0 0 0-.62-.17.92.92 0 0 0-.33 0 .76.76 0 0 0-.23.13.52.52 0 0 0-.14.19 1 1 0 0 0 0 .24.38.38 0 0 0 .1.29.67.67 0 0 0 .25.19 2.13 2.13 0 0 0 .35.14l.41.14a2.9 2.9 0 0 1 .41.16 2.25 2.25 0 0 1 .36.24 1.78 1.78 0 0 1 .25.36 1.48 1.48 0 0 1 .09.51 1.52 1.52 0 0 1-.11.6 1.38 1.38 0 0 1-.32.5 1.82 1.82 0 0 1-.53.33 2.16 2.16 0 0 1-.71.12 3.38 3.38 0 0 1-.45 0 2.13 2.13 0 0 1-.43-.13 2 2 0 0 1-.38-.2 1.35 1.35 0 0 1-.32-.26l.26-.43a.22.22 0 0 1 .09-.07.21.21 0 0 1 .11 0 .4.4 0 0 1 .18.07l.23.15a1.77 1.77 0 0 0 .31.15 1.05 1.05 0 0 0 .43.07.9.9 0 0 0 .59-.18.67.67 0 0 0 .21-.52.56.56 0 0 0-.09-.31 1 1 0 0 0-.25-.2l-.31-.14-.41-.12a2.78 2.78 0 0 1-.4-.16 1.41 1.41 0 0 1-.36-.24 1.19 1.19 0 0 1-.25-.38 1.28 1.28 0 0 1-.09-.55 1.25 1.25 0 0 1 .1-.51 1.14 1.14 0 0 1 .31-.44 1.41 1.41 0 0 1 .49-.31 1.89 1.89 0 0 1 .67-.12 2.28 2.28 0 0 1 .78.13 1.73 1.73 0 0 1 .62.38zm4.92 3.21a1.27 1.27 0 0 0 .47-.09 1.16 1.16 0 0 0 .34-.24 1.11 1.11 0 0 0 .22-.38 1.68 1.68 0 0 0 .07-.5v-2.88H20v2.88a2.44 2.44 0 0 1-.13.8 1.94 1.94 0 0 1-.4.62 1.79 1.79 0 0 1-.63.42 2.37 2.37 0 0 1-.83.14 2.63 2.63 0 0 1-.83-.14 1.66 1.66 0 0 1-.63-.42 1.56 1.56 0 0 1-.39-.62 2.21 2.21 0 0 1-.14-.8v-2.88h1v2.88a1.42 1.42 0 0 0 .08.5 1 1 0 0 0 .21.38 1 1 0 0 0 .35.24 1.43 1.43 0 0 0 .39.09zm5.8.72H23v-4.81h.9zm6.33-4.07h-1.45v4.07h-.89v-4.07h-1.45v-.74h3.79zm3.43 0v1.33h1.66v.69h-1.66v1.36h2.13v.71h-3v-4.83h3v.72zm24.85 4.06h.18a.3.3 0 0 1 .17.12l1 1.07a4.31 4.31 0 0 1-1.67 1.32 5.93 5.93 0 0 1-2.39.44 5.68 5.68 0 0 1-2.26-.43 4.87 4.87 0 0 1-1.69-1.18 5.22 5.22 0 0 1-1.07-1.8 6.36 6.36 0 0 1-.37-2.25 6 6 0 0 1 .4-2.27 5.11 5.11 0 0 1 1.14-1.79 4.9 4.9 0 0 1 1.74-1.17 5.72 5.72 0 0 1 2.24-.42 6.64 6.64 0 0 1 1.18.11 5.76 5.76 0 0 1 1 .3 4.62 4.62 0 0 1 1.59 1.06l-.86 1.17a1.8 1.8 0 0 1-.2.19.59.59 0 0 1-.32.09.58.58 0 0 1-.26-.06l-.26-.15-.3-.19a2.69 2.69 0 0 0-.38-.19 2.46 2.46 0 0 0-.53-.15 4.14 4.14 0 0 0-.7-.06 2.94 2.94 0 0 0-1.17.23 2.68 2.68 0 0 0-.91.69 3 3 0 0 0-.49 1.1 4.77 4.77 0 0 0-.21 1.5 4.54 4.54 0 0 0 .21 1.55 3.44 3.44 0 0 0 .63 1.12 2.73 2.73 0 0 0 .93.68 2.81 2.81 0 0 0 1.14.24h.64a5.23 5.23 0 0 0 .54-.12 2.18 2.18 0 0 0 .47-.21 3 3 0 0 0 .45-.34 1.37 1.37 0 0 1 .2-.13.41.41 0 0 1 .22 0zm6.1-3a2.7 2.7 0 0 0 .89-.13 1.44 1.44 0 0 0 .6-.37 1.33 1.33 0 0 0 .35-.55 2.24 2.24 0 0 0 .1-.68 1.46 1.46 0 0 0-.5-1.14 2.27 2.27 0 0 0-1.47-.41h-1v3.28zM70 51.09h-2.31a1 1 0 0 1-.93-.49l-1.84-3.21a.76.76 0 0 0-.29-.3.87.87 0 0 0-.45-.1h-.66v4.1H61V40h3.6a7.08 7.08 0 0 1 2 .25 3.84 3.84 0 0 1 1.39.68 3 3 0 0 1 .78 1.07 3.64 3.64 0 0 1 .23 1.3 3.37 3.37 0 0 1-.15 1 2.91 2.91 0 0 1-.42.89 3 3 0 0 1-.7.72 3.84 3.84 0 0 1-1 .53 1.86 1.86 0 0 1 .47.32 2.21 2.21 0 0 1 .4.46zM83.39 40v11.08h-2.26v-7.37l-2.86 5.69a.9.9 0 0 1-.37.4 1 1 0 0 1-.53.14H77a1.07 1.07 0 0 1-.52-.14.9.9 0 0 1-.37-.4l-2.94-5.7v7.38H71V40h2.47a.57.57 0 0 1 .18.12 1.19 1.19 0 0 1 .16.23l2.8 5.65c.1.19.2.39.29.6l.27.64q.12-.33.27-.66a5.59 5.59 0 0 1 .3-.6l2.84-5.59a.73.73 0 0 1 .16-.23.66.66 0 0 1 .17-.12h2.48z" fill="#f5f5f5" fill-rule="evenodd"/></svg>