<svg xmlns="http://www.w3.org/2000/svg" width="91" height="91"><path d="M45.5 7.9A37.53 37.53 0 1 1 7.93 45.39 37.53 37.53 0 0 1 45.5 7.9m0-2.4a40 40 0 1 0 40 40 40 40 0 0 0-40-40z" fill="#1e8cbe"/><path d="M12.17 45.5A33.33 33.33 0 0 0 31 75.5L15.06 31.93a33.05 33.05 0 0 0-2.89 13.57zM68 43.82a17.5 17.5 0 0 0-2.75-9.19C63.57 31.88 62 29.55 62 26.8a5.78 5.78 0 0 1 5.6-5.92h.43a33.34 33.34 0 0 0-50.36 6.28h2.14c3.49 0 8.89-.42 8.89-.42a1.37 1.37 0 0 1 .21 2.74s-1.81.21-3.81.32L37.21 66l7.3-21.87-5.19-14.26c-1.79-.11-3.49-.31-3.49-.31a1.38 1.38 0 0 1 .2-2.75s5.51.42 8.78.42c3.49 0 8.89-.42 8.89-.42a1.38 1.38 0 0 1 .21 2.75s-1.81.2-3.81.31l12 35.83 3.44-10.9C67.11 50 68 46.67 68 43.82zm-21.91 4.59l-10 29.07A33.36 33.36 0 0 0 56.57 77a4 4 0 0 1-.24-.46zm28.66-18.9a24.6 24.6 0 0 1 .25 3.43 31.36 31.36 0 0 1-2.54 11.94l-10.2 29.43a33.34 33.34 0 0 0 12.49-44.8z" fill="#1e8cbe"/></svg>