<svg xmlns="http://www.w3.org/2000/svg" width="91" height="91"><defs><radialGradient id="a" cx="46.98" cy="43.34" r="32.5" gradientTransform="rotate(83.66 44.81 43.465)" gradientUnits="userSpaceOnUse"><stop offset="0" stop-color="#f6c229"/><stop offset="1" stop-color="#cc2129"/></radialGradient></defs><path transform="rotate(-83.62 45.496 45.502)" fill="url(#a)" d="M16.09 16.09h58.83v58.83H16.09z"/><path d="M15.62 16.28v59.19h59.2V16.28zm5.29 35.66c-1.66 0-3-1.8-3-4 0-3.65 3.76-9.7 8.58-13.78 3.05-2.59 10.49-4.74 16.69-4.74 3.68 0 6.66 1.51 6.66 3.37s-3.56 1.74-7.76 3c-9 2.74-12.94 7.39-15.32 10.67-1.91 2.65-4.47 5.47-5.84 5.47zM54.48 36A5.65 5.65 0 0 1 60 41.81c0 2.83-1 5.11-5.2 5.11-3.22 0-5.83-2.12-5.83-4.74 0-3.43 2.48-6.2 5.56-6.2zM37.24 65a26.79 26.79 0 0 1 .91 5.65A1.25 1.25 0 0 1 37.06 72c-5.09 0-9.21-7.59-9.21-17A17.77 17.77 0 0 1 35 40.72a12.31 12.31 0 0 1 8.21-2.83c2 0 3.56.82 3.56 1.82s-.57 1.29-1.23 1.74c-7.2 5.2-9.54 5.74-9.54 13.49A42.61 42.61 0 0 0 37.24 65zm18.61 2.28c-3.93 0-7-2-9-3.47a12.64 12.64 0 0 1-5.5-9.81c0-4 3-8.57 5.65-8.57 1.37 0 1.67 1.1 1.55 2.92-.55 8.3 4.47 9.49 8.3 9.49a20.49 20.49 0 0 0 5-.37 16.82 16.82 0 0 1 4-.73c.9 0 1.63.53 1.63 1.19.04 2.07-5.18 9.33-11.63 9.33zm7.57-17c-.46 0-.82-.53-.82-1.18 0-9.21-1.92-13.68-5.75-17-5.63-4.83-12.77-7.75-12.77-11 0-1.36 1.67-2.47 3.74-2.47 5.93 0 12.08 5 14.32 7.21 3.51 3.51 6.93 9.12 6.93 15.6 0 6.66-5.11 8.85-5.65 8.85z"/></svg>